<svg width="58" height="58" viewBox="0 0 58 58" fill="none" xmlns="http://www.w3.org/2000/svg">
<path d="M2.40964 31.2373C2.10262 25.5555 3.60168 19.9222 6.69197 15.1443C6.99031 14.7117 6.88147 14.119 6.44871 13.8207C6.01608 13.5224 5.42345 13.6312 5.12512 14.0639C5.11536 14.0781 5.10608 14.0925 5.09704 14.1071C1.78537 19.2231 0.178667 25.2564 0.507336 31.342C0.535646 31.8466 0.953531 32.2411 1.45896 32.2403H1.51226C2.03708 32.2112 2.43879 31.7621 2.40964 31.2373Z" fill="#616161"/>
<path d="M11.7743 14.7047C12.1364 14.3237 12.1211 13.7214 11.7401 13.3593C11.3591 12.9972 10.7568 13.0126 10.3947 13.3936C10.3757 13.4137 10.3575 13.4345 10.3402 13.4561C5.33608 19.2401 3.26616 27.0022 4.72561 34.51C4.82779 35.0259 5.32882 35.3611 5.84472 35.2589C6.36062 35.1567 6.69584 34.6557 6.59365 34.1398C5.24662 27.2097 7.15654 20.0447 11.7743 14.7047Z" fill="#616161"/>
<path d="M57.4965 28.1521C57.4687 27.6266 57.02 27.2231 56.4944 27.2509C55.9689 27.2788 55.5654 27.7275 55.5932 28.253C55.8835 33.9329 54.3692 39.5591 51.2671 44.326C50.9781 44.7657 51.1001 45.3564 51.5398 45.6454C51.9794 45.9345 52.5701 45.8125 52.8592 45.3728C56.1838 40.2659 57.8071 34.2379 57.4965 28.1521Z" fill="#616161"/>
<path d="M53.2855 24.9632C53.1783 24.4487 52.6743 24.1185 52.1597 24.2257C51.6548 24.331 51.3256 24.8192 51.4175 25.3267C52.7451 32.2611 50.8157 39.4211 46.1835 44.7495C45.8111 45.1203 45.8097 45.7229 46.1806 46.0953C46.5514 46.4678 47.154 46.4691 47.5265 46.0982C47.5568 46.068 47.585 46.0358 47.6111 46.0018C52.6303 40.231 54.7221 32.4752 53.2855 24.9632Z" fill="#616161"/>
<path d="M42.2849 11.3663V11.3654C45.9773 13.579 48.8087 16.9805 50.3157 21.013C50.4143 21.2811 50.6281 21.4907 50.8981 21.584C50.9976 21.6187 51.1021 21.6364 51.2074 21.6363C51.3836 21.6361 51.5562 21.5871 51.7061 21.4945C55.2891 19.2943 56.41 14.6061 54.2098 11.0233C52.0096 7.44037 47.3214 6.31935 43.7385 8.51952C43.1177 8.90077 42.5547 9.36921 42.067 9.91033C41.7142 10.2999 41.7442 10.9017 42.1337 11.2545C42.1804 11.2966 42.231 11.3341 42.2849 11.3663ZM49.1909 9.50017C52.2367 10.3171 54.0435 13.4485 53.2265 16.4942C52.9515 17.5197 52.3959 18.4481 51.6223 19.1754C50.0486 15.6369 47.5242 12.6043 44.33 10.4147C45.7259 9.38419 47.516 9.04732 49.1909 9.50017Z" fill="#616161"/>
<path d="M48.6027 22.3662C46.944 17.9298 43.8284 14.1877 39.7659 11.7527C38.3701 10.9153 36.88 10.2464 35.3265 9.76002L35.8281 7.88911L38.5878 8.62853C38.6685 8.64994 38.7517 8.66089 38.8352 8.66089C39.3607 8.66065 39.7866 8.23432 39.7864 7.70878C39.7861 7.27817 39.4967 6.90132 39.0807 6.78998L35.4036 5.80505L31.7256 4.82011C31.2138 4.70021 30.7019 5.01781 30.582 5.52955C30.4674 6.01869 30.7527 6.51258 31.2336 6.65771L33.9933 7.39712L33.4928 9.26707C31.9059 8.91188 30.2824 8.74606 28.6566 8.77318C17.0915 8.96909 7.87502 18.5032 8.07094 30.0683C8.16634 35.7017 10.5276 41.059 14.6211 44.9302L9.12451 49.419C8.71745 49.7517 8.65714 50.3514 8.98985 50.7585C9.32257 51.1655 9.92221 51.2258 10.3293 50.8931L16.0885 46.1892C20.5701 49.7112 26.2974 51.2468 31.9398 50.4392L34.5749 57.3861C34.7152 57.7557 35.0694 57.9999 35.4646 57.9999C35.5798 58.0004 35.694 57.9793 35.8015 57.938C36.2928 57.7519 36.5403 57.2028 36.3544 56.7114L33.8355 50.069C35.8107 49.6007 37.7076 48.8488 39.4672 47.8365C48.327 42.7193 52.1904 31.9481 48.6027 22.3662ZM47.5911 33.7078L45.7888 33.2243C45.2811 33.0882 44.7591 33.3894 44.623 33.8971C44.4869 34.4048 44.7881 34.9268 45.2958 35.0629L47.0896 35.5435C46.2728 38.1099 44.9161 40.4717 43.1109 42.4704L41.7843 41.1438C41.4063 40.7786 40.8039 40.7891 40.4387 41.1671C40.0824 41.5359 40.0824 42.1206 40.4387 42.4894L41.7643 43.815C39.7684 45.6282 37.4061 46.9913 34.8374 47.8119L34.3521 46.0038C34.216 45.4961 33.694 45.1949 33.1863 45.331C32.6786 45.467 32.3774 45.989 32.5135 46.4967L32.9998 48.3096C30.3643 48.8732 27.6388 48.8664 25.0061 48.2896L25.4819 46.4967C25.618 45.989 25.3168 45.467 24.8091 45.331C24.3014 45.1949 23.7795 45.4961 23.6434 46.0038L23.1676 47.7976C20.5989 46.9806 18.235 45.623 16.235 43.816L17.5615 42.4894C17.9267 42.1114 17.9163 41.509 17.5382 41.1438C17.1695 40.7876 16.5848 40.7876 16.2159 41.1438L14.8903 42.4694C13.0765 40.4738 11.7134 38.1114 10.8935 35.5425L12.7016 35.0572C13.2093 34.9211 13.5104 34.3991 13.3744 33.8914C13.2383 33.3837 12.7163 33.0825 12.2086 33.2186L10.4005 33.7049C9.83657 31.0695 9.84311 28.3439 10.4196 25.7112L12.2124 26.187C12.2932 26.2084 12.3763 26.2194 12.4599 26.2194C12.9854 26.2192 13.4112 25.7928 13.411 25.2673C13.4108 24.8367 13.1214 24.4598 12.7054 24.3485L10.903 23.8651C11.7227 21.2966 13.0833 18.9336 14.8932 16.9353L16.2197 18.2619C16.5978 18.6269 17.2003 18.6165 17.5653 18.2384C17.9215 17.8697 17.9215 17.285 17.5653 16.9163L16.2464 15.5973C16.4653 15.4013 16.6775 15.1995 16.9059 15.0111C18.7598 13.4898 20.8851 12.3335 23.1695 11.6033L23.652 13.4019C23.7634 13.8175 24.1399 14.1067 24.5703 14.1071C24.6538 14.1075 24.7371 14.0966 24.8177 14.0747C25.3254 13.9386 25.6266 13.4168 25.4905 12.9092C25.4905 12.9091 25.4905 12.9091 25.4905 12.909L25.0023 11.1104C26.2139 10.8448 27.4487 10.6994 28.6889 10.6764C28.8126 10.6764 28.9364 10.6764 29.0601 10.6764C30.3849 10.6802 31.7055 10.8248 32.9998 11.1075L32.5145 12.9156C32.3783 13.4232 32.6795 13.9452 33.187 14.0812C33.1872 14.0812 33.1872 14.0812 33.1873 14.0812C33.2679 14.1031 33.3512 14.1141 33.4347 14.1136C33.8651 14.1132 34.2416 13.8241 34.353 13.4084L34.8374 11.6003C37.4069 12.4151 39.7686 13.7789 41.7586 15.5972L40.4396 16.9161C40.0616 17.2813 40.0511 17.8837 40.4163 18.2618C40.7815 18.6398 41.3839 18.6503 41.7619 18.2851C41.7699 18.2775 41.7776 18.2696 41.7852 18.2618L43.1014 16.9523C44.7156 18.729 45.9781 20.7956 46.8222 23.0427C46.925 23.3187 47.0125 23.5994 47.0991 23.8783L45.2987 24.3607C44.791 24.4966 44.4895 25.0183 44.6254 25.526C44.7367 25.942 45.1136 26.2314 45.5442 26.2316C45.6277 26.2316 45.7108 26.2207 45.7916 26.1993L47.5997 25.714C48.1687 28.3485 48.1657 31.0745 47.5911 33.7078Z" fill="#616161"/>
<path d="M13.4381 11.236C13.5733 11.4868 13.814 11.664 14.0937 11.7184C14.1537 11.7297 14.2145 11.7356 14.2755 11.7356C14.4965 11.7354 14.7107 11.6587 14.8817 11.5186C18.2042 8.77945 22.3583 7.24947 26.6638 7.17917C27.1893 7.17155 27.6091 6.7394 27.6015 6.21386C27.6006 6.15093 27.5934 6.08824 27.5802 6.02675C26.7033 1.91464 22.6589 -0.707933 18.5468 0.168993C14.4347 1.04592 11.8121 5.09034 12.689 9.20245C12.8404 9.91248 13.0927 10.5973 13.4381 11.236ZM14.6219 6.1476C15.4374 3.10144 18.5679 1.29322 21.6141 2.10877C23.2904 2.55758 24.6716 3.74438 25.3677 5.33396C21.5066 5.63313 17.804 6.99681 14.6714 9.2737C14.3629 8.25677 14.3458 7.1737 14.6219 6.1476Z" fill="#616161"/>
<path d="M32.2007 17.7546C31.6932 17.619 31.172 17.9202 31.0359 18.4274L28.7739 26.8674C27.9154 26.9222 27.1318 27.375 26.6556 28.0912L21.8917 26.8151C21.3834 26.6816 20.8631 26.9855 20.7296 27.4938C20.5971 27.9988 20.8961 28.5162 21.3997 28.6536L26.1579 29.9288C26.2719 31.5014 27.6393 32.6836 29.2119 32.5696C30.7844 32.4555 31.9667 31.0881 31.8526 29.5155C31.7894 28.6442 31.3307 27.8498 30.6077 27.3594L32.8687 18.9194C33.0047 18.4134 32.7061 17.8928 32.2007 17.7546ZM29.9207 29.9504C29.9207 29.9506 29.9207 29.9506 29.9207 29.9507H29.9169C29.7808 30.4584 29.259 30.7594 28.7513 30.6234C28.2436 30.4873 27.9425 29.9653 28.0786 29.4577C28.1903 29.0412 28.5682 28.7517 28.9995 28.7526C29.0834 28.7525 29.1669 28.7634 29.2479 28.7849C29.7555 28.921 30.0568 29.4428 29.9207 29.9504Z" fill="#616161"/>
</svg>
