<?xml version="1.0" encoding="UTF-8"?>
<svg width="64px" height="64px" viewBox="0 0 64 64" version="1.1" xmlns="http://www.w3.org/2000/svg" xmlns:xlink="http://www.w3.org/1999/xlink">
    <!-- Generator: Sketch 56.3 (81716) - https://sketch.com -->
    <title>cofe / clock</title>
    <desc>Created with Sketch.</desc>
    <defs>
        <polygon id="path-1" points="0.702333333 55.93 38.0356667 55.93 38.0356667 0 0.702333333 0"></polygon>
    </defs>
    <g id="cofe-/-clock" stroke="none" stroke-width="1" fill="none" fill-rule="evenodd">
        <g id="hourglass" transform="translate(7.000000, 4.000000)">
            <path d="M29.869,48.5356667 C29.869,49.0501667 29.449,49.4643333 28.9345,49.4643333 C28.4188333,49.4643333 28,49.0501667 28,48.5356667 C28,48.0153333 28.4188333,47.6011667 28.9345,47.6011667 C29.449,47.6011667 29.869,48.0153333 29.869,48.5356667 Z" id="Fill-1" fill="#616161"></path>
            <path d="M33.6011667,48.5356667 C33.6011667,49.0501667 33.1811667,49.4643333 32.6666667,49.4643333 C32.1521667,49.4643333 31.7321667,49.0501667 31.7321667,48.5356667 C31.7321667,48.0153333 32.1521667,47.6011667 32.6666667,47.6011667 C33.1811667,47.6011667 33.6011667,48.0153333 33.6011667,48.5356667 Z" id="Fill-2" fill="#616161"></path>
            <path d="M37.3333333,48.5356667 C37.3333333,49.0501667 36.9145,49.4643333 36.3988333,49.4643333 C35.8843333,49.4643333 35.4643333,49.0501667 35.4643333,48.5356667 C35.4643333,48.0153333 35.8843333,47.6011667 36.3988333,47.6011667 C36.9145,47.6011667 37.3333333,48.0153333 37.3333333,48.5356667 Z" id="Fill-3" fill="#616161"></path>
            <path d="M28,30.7976667 C28,31.318 27.5811667,31.7321667 27.0655,31.7321667 C26.551,31.7321667 26.131,31.318 26.131,30.7976667 C26.131,30.2831667 26.551,29.869 27.0655,29.869 C27.5811667,29.869 28,30.2831667 28,30.7976667 Z" id="Fill-4" fill="#616161"></path>
            <path d="M29.869,20.5356667 C29.869,21.0501667 29.449,21.4643333 28.9345,21.4643333 C28.4188333,21.4643333 28,21.0501667 28,20.5356667 C28,20.0153333 28.4188333,19.6011667 28.9345,19.6011667 C29.449,19.6011667 29.869,20.0153333 29.869,20.5356667 Z" id="Fill-5" fill="#616161"></path>
            <path d="M33.6011667,20.5356667 C33.6011667,21.0501667 33.1811667,21.4643333 32.6666667,21.4643333 C32.1521667,21.4643333 31.7321667,21.0501667 31.7321667,20.5356667 C31.7321667,20.0153333 32.1521667,19.6011667 32.6666667,19.6011667 C33.1811667,19.6011667 33.6011667,20.0153333 33.6011667,20.5356667 Z" id="Fill-6" fill="#616161"></path>
            <path d="M31.7321667,18.6666667 C31.7321667,19.1811667 31.318,19.6011667 30.7976667,19.6011667 C30.2831667,19.6011667 29.869,19.1811667 29.869,18.6666667 C29.869,18.1521667 30.2831667,17.7321667 30.7976667,17.7321667 C31.318,17.7321667 31.7321667,18.1521667 31.7321667,18.6666667 Z" id="Fill-7" fill="#616161"></path>
            <path d="M33.6011667,16.7976667 C33.6011667,17.318 33.1811667,17.7321667 32.6666667,17.7321667 C32.1521667,17.7321667 31.7321667,17.318 31.7321667,16.7976667 C31.7321667,16.2831667 32.1521667,15.869 32.6666667,15.869 C33.1811667,15.869 33.6011667,16.2831667 33.6011667,16.7976667 Z" id="Fill-8" fill="#616161"></path>
            <path d="M29.869,24.2678333 C29.869,24.7823333 29.449,25.2023333 28.9345,25.2023333 C28.4188333,25.2023333 28,24.7823333 28,24.2678333 C28,23.7521667 28.4188333,23.3333333 28.9345,23.3333333 C29.449,23.3333333 29.869,23.7521667 29.869,24.2678333 Z" id="Fill-9" fill="#616161"></path>
            <path d="M28,22.3988333 C28,22.9145 27.5811667,23.3333333 27.0655,23.3333333 C26.551,23.3333333 26.131,22.9145 26.131,22.3988333 C26.131,21.8843333 26.551,21.4643333 27.0655,21.4643333 C27.5811667,21.4643333 28,21.8843333 28,22.3988333 Z" id="Fill-10" fill="#616161"></path>
            <path d="M31.7321667,22.3988333 C31.7321667,22.9145 31.318,23.3333333 30.7976667,23.3333333 C30.2831667,23.3333333 29.869,22.9145 29.869,22.3988333 C29.869,21.8843333 30.2831667,21.4643333 30.7976667,21.4643333 C31.318,21.4643333 31.7321667,21.8843333 31.7321667,22.3988333 Z" id="Fill-11" fill="#616161"></path>
            <path d="M28,33.6011667 C28,34.1156667 27.5811667,34.5356667 27.0655,34.5356667 C26.551,34.5356667 26.131,34.1156667 26.131,33.6011667 C26.131,33.0855 26.551,32.6666667 27.0655,32.6666667 C27.5811667,32.6666667 28,33.0855 28,33.6011667 Z" id="Fill-12" fill="#616161"></path>
            <path d="M28,36.3988333 C28,36.9145 27.5811667,37.3333333 27.0655,37.3333333 C26.551,37.3333333 26.131,36.9145 26.131,36.3988333 C26.131,35.8843333 26.551,35.4643333 27.0655,35.4643333 C27.5811667,35.4643333 28,35.8843333 28,36.3988333 Z" id="Fill-13" fill="#616161"></path>
            <path d="M28,39.2023333 C28,39.7168333 27.5811667,40.131 27.0655,40.131 C26.551,40.131 26.131,39.7168333 26.131,39.2023333 C26.131,38.682 26.551,38.2678333 27.0655,38.2678333 C27.5811667,38.2678333 28,38.682 28,39.2023333 Z" id="Fill-14" fill="#616161"></path>
            <path d="M28,42 C28,42.5145 27.5811667,42.9345 27.0655,42.9345 C26.551,42.9345 26.131,42.5145 26.131,42 C26.131,41.4855 26.551,41.0655 27.0655,41.0655 C27.5811667,41.0655 28,41.4855 28,42 Z" id="Fill-15" fill="#616161"></path>
            <path d="M28,44.7976667 C28,45.318 27.5811667,45.7321667 27.0655,45.7321667 C26.551,45.7321667 26.131,45.318 26.131,44.7976667 C26.131,44.2831667 26.551,43.869 27.0655,43.869 C27.5811667,43.869 28,44.2831667 28,44.7976667 Z" id="Fill-16" fill="#616161"></path>
            <path d="M31.7321667,46.6666667 C31.7321667,47.1811667 31.318,47.6011667 30.7976667,47.6011667 C30.2831667,47.6011667 29.869,47.1811667 29.869,46.6666667 C29.869,46.1521667 30.2831667,45.7321667 30.7976667,45.7321667 C31.318,45.7321667 31.7321667,46.1521667 31.7321667,46.6666667 Z" id="Fill-17" fill="#616161"></path>
            <path d="M35.4643333,46.6666667 C35.4643333,47.1811667 35.0501667,47.6011667 34.5356667,47.6011667 C34.0153333,47.6011667 33.6011667,47.1811667 33.6011667,46.6666667 C33.6011667,46.1521667 34.0153333,45.7321667 34.5356667,45.7321667 C35.0501667,45.7321667 35.4643333,46.1521667 35.4643333,46.6666667 Z" id="Fill-18" fill="#616161"></path>
            <path d="M18.6666667,10.2678333 L14,10.2678333 C13.4855,10.2678333 13.0655,10.682 13.0655,11.2023333 C13.0655,11.7168333 13.4855,12.131 14,12.131 L18.6666667,12.131 C19.1811667,12.131 19.6011667,11.7168333 19.6011667,11.2023333 C19.6011667,10.682 19.1811667,10.2678333 18.6666667,10.2678333 Z" id="Fill-19" fill="#616161"></path>
            <path d="M18.6666667,16.7976667 L9.33333333,16.7976667 C8.81883333,16.7976667 8.39883333,17.2176667 8.39883333,17.7321667 C8.39883333,18.2478333 8.81883333,18.6666667 9.33333333,18.6666667 L18.6666667,18.6666667 C19.1811667,18.6666667 19.6011667,18.2478333 19.6011667,17.7321667 C19.6011667,17.2176667 19.1811667,16.7976667 18.6666667,16.7976667 Z" id="Fill-20" fill="#616161"></path>
            <path d="M18.6666667,23.3333333 L4.66666667,23.3333333 C4.15216667,23.3333333 3.73216667,23.7521667 3.73216667,24.2678333 C3.73216667,24.7823333 4.15216667,25.2023333 4.66666667,25.2023333 L18.6666667,25.2023333 C19.1811667,25.2023333 19.6011667,24.7823333 19.6011667,24.2678333 C19.6011667,23.7521667 19.1811667,23.3333333 18.6666667,23.3333333 Z" id="Fill-21" fill="#616161"></path>
            <path d="M18.6666667,29.869 L0.9345,29.869 C0.418833333,29.869 0,30.2831667 0,30.7976667 C0,31.318 0.418833333,31.7321667 0.9345,31.7321667 L18.6666667,31.7321667 C19.1811667,31.7321667 19.6011667,31.318 19.6011667,30.7976667 C19.6011667,30.2831667 19.1811667,29.869 18.6666667,29.869 Z" id="Fill-22" fill="#616161"></path>
            <path d="M18.6666667,36.3988333 L6.53566667,36.3988333 C6.02,36.3988333 5.60116667,36.8188333 5.60116667,37.3333333 C5.60116667,37.8478333 6.02,38.2678333 6.53566667,38.2678333 L18.6666667,38.2678333 C19.1811667,38.2678333 19.6011667,37.8478333 19.6011667,37.3333333 C19.6011667,36.8188333 19.1811667,36.3988333 18.6666667,36.3988333 Z" id="Fill-23" fill="#616161"></path>
            <g id="Group-27" transform="translate(10.500000, 0.000000)">
                <mask id="mask-2" fill="white">
                    <use xlink:href="#path-1"></use>
                </mask>
                <g id="Clip-25"></g>
                <path d="M8.16666667,42.9345 L1.631,42.9345 C1.1165,42.9345 0.702333333,43.3486667 0.702333333,43.869 C0.702333333,44.3835 1.1165,44.7976667 1.631,44.7976667 L8.16666667,44.7976667 C8.68116667,44.7976667 9.10116667,44.3835 9.10116667,43.869 C9.10116667,43.3486667 8.68116667,42.9345 8.16666667,42.9345 Z" id="Fill-24" fill="#616161" mask="url(#mask-2)"></path>
                <path d="M35.2321667,50.3988333 L30.5655,50.3988333 L30.5655,44.7976667 C30.5655,37.716 26.6968333,31.3226667 20.5671667,28 C26.6968333,24.6773333 30.5655,18.284 30.5655,11.2023333 L30.5655,5.60116667 L35.2321667,5.60116667 C36.7768333,5.60116667 38.0356667,4.3435 38.0356667,2.79766667 C38.0356667,1.25766667 36.7768333,0 35.2321667,0 L13.7678333,0 C13.2521667,0 12.8333333,0.418833333 12.8333333,0.9345 C12.8333333,1.449 13.2521667,1.869 13.7678333,1.869 L35.2321667,1.869 C35.7478333,1.869 36.1666667,2.28316667 36.1666667,2.79766667 C36.1666667,3.31333333 35.7478333,3.73216667 35.2321667,3.73216667 L13.7678333,3.73216667 C13.2521667,3.73216667 12.8333333,4.15216667 12.8333333,4.66666667 C12.8333333,5.18116667 13.2521667,5.60116667 13.7678333,5.60116667 L28.7023333,5.60116667 L28.7023333,11.2023333 C28.7023333,18.193 24.5315,24.4451667 18.0786667,27.139 C18.0786667,27.139 18.0786667,27.139 18.074,27.139 C18.0646667,27.1436667 18.0565,27.1518333 18.0471667,27.1565 C17.9468333,27.202 17.8511667,27.2615 17.773,27.3443333 C17.71,27.4073333 17.6645,27.4855 17.6225,27.5671667 C17.6096667,27.594 17.5816667,27.6126667 17.5723333,27.6395 L17.5723333,27.6441667 C17.5268333,27.7585 17.5,27.8775 17.5,28 C17.5,28.1225 17.5268333,28.2461667 17.5723333,28.3558333 L17.5723333,28.3605 C17.6143333,28.4643333 17.6773333,28.5518333 17.7508333,28.6288333 C17.773,28.6521667 17.7963333,28.6696667 17.8185,28.6883333 C17.8826667,28.7478333 17.9515,28.7933333 18.0285,28.8295 C18.0471667,28.8388333 18.0565,28.8563333 18.074,28.861 C24.5268333,31.5501667 28.7023333,37.807 28.7023333,44.7976667 L28.7023333,50.3988333 C28.7023333,49.8843333 28.2823333,49.4643333 27.7678333,49.4643333 C27.2521667,49.4643333 26.8333333,49.8843333 26.8333333,50.3988333 L24.9643333,50.3988333 C24.9643333,49.8843333 24.5501667,49.4643333 24.0356667,49.4643333 C23.52,49.4643333 23.1011667,49.8843333 23.1011667,50.3988333 L21.2321667,50.3988333 C21.2321667,49.8843333 20.8133333,49.4643333 20.2976667,49.4643333 C19.7831667,49.4643333 19.369,49.8843333 19.369,50.3988333 L17.5,50.3988333 C17.5,49.8843333 17.0811667,49.4643333 16.5655,49.4643333 C16.051,49.4643333 15.631,49.8843333 15.631,50.3988333 L13.7678333,50.3988333 C13.2521667,50.3988333 12.8333333,50.8188333 12.8333333,51.3333333 C12.8333333,51.8478333 13.2521667,52.2678333 13.7678333,52.2678333 L35.2321667,52.2678333 C35.7478333,52.2678333 36.1666667,52.6866667 36.1666667,53.2023333 C36.1666667,53.7168333 35.7478333,54.131 35.2321667,54.131 L13.7678333,54.131 C13.2521667,54.131 12.8333333,54.551 12.8333333,55.0655 C12.8333333,55.5811667 13.2521667,56 13.7678333,56 L35.2321667,56 C36.7768333,56 38.0356667,54.7423333 38.0356667,53.2023333 C38.0356667,51.6565 36.7768333,50.3988333 35.2321667,50.3988333 Z" id="Fill-26" fill="#616161" mask="url(#mask-2)"></path>
            </g>
        </g>
    </g>
</svg>