<?xml version="1.0" encoding="UTF-8"?>
<svg width="64px" height="64px" viewBox="0 0 64 64" version="1.1" xmlns="http://www.w3.org/2000/svg" xmlns:xlink="http://www.w3.org/1999/xlink">
    <!-- Generator: Sketch 56.3 (81716) - https://sketch.com -->
    <title>cofe / crem</title>
    <desc>Created with Sketch.</desc>
    <g id="cofe-/-crem" stroke="none" stroke-width="1" fill="none" fill-rule="evenodd">
        <g id="kremlin" transform="translate(9.000000, 2.000000)" fill="#616161">
            <path d="M22.0000862,34 C19.794349,34 18,35.794349 18,38.0000862 C18,40.2058234 19.794349,42 22.0000862,42 C24.2058234,42 26,40.2058234 26,38.0000862 C26,35.794349 24.2058234,34 22.0000862,34 Z M22.0000862,40.8967004 C20.4024656,40.8967004 19.1032996,39.5968448 19.1032996,38.0000862 C19.1032996,36.4031552 20.4024656,35.1032996 22.0000862,35.1032996 C23.5968448,35.1032996 24.8967004,36.4031552 24.8967004,38.0000862 C24.8967004,39.5968448 23.5968448,40.8967004 22.0000862,40.8967004 Z" id="Fill-1"></path>
            <path d="M16.5,48 C16.2239762,48 16,48.2686875 16,48.5998125 L16,50.4001875 C16,50.731125 16.2239762,51 16.5,51 C16.7758675,51 17,50.731125 17,50.4001875 L17,48.5998125 C17,48.2686875 16.7758675,48 16.5,48 Z" id="Fill-2"></path>
            <path d="M19.5002343,48 C19.2239575,48 19,48.2686875 19,48.5998125 L19,50.4001875 C19,50.731125 19.2239575,51 19.5002343,51 C19.7760425,51 20,50.731125 20,50.4001875 L20,48.5998125 C20,48.2686875 19.7760425,48 19.5002343,48 Z" id="Fill-3"></path>
            <path d="M22.5,48 C22.2239762,48 22,48.2686875 22,48.5998125 L22,50.4001875 C22,50.731125 22.2239762,51 22.5,51 C22.776649,51 23,50.731125 23,50.4001875 L23,48.5998125 C23,48.2686875 22.776649,48 22.5,48 Z" id="Fill-4"></path>
            <path d="M24.5000781,48 C24.2234724,48 24,48.2686875 24,48.5998125 L24,50.4001875 C24,50.731125 24.2234724,51 24.5000781,51 C24.7759025,51 25,50.731125 25,50.4001875 L25,48.5998125 C25,48.2686875 24.7759025,48 24.5000781,48 Z" id="Fill-5"></path>
            <path d="M27.4996876,48 C27.2239925,48 27,48.2686875 27,48.5998125 L27,50.4001875 C27,50.731125 27.2239925,51 27.4996876,51 C27.7761637,51 28,50.731125 28,50.4001875 L28,48.5998125 C28,48.2686875 27.7761637,48 27.4996876,48 Z" id="Fill-6"></path>
            <path d="M20.3269615,2.15044985 L21.0926919,2.46084638 L20.6493743,3.17877374 C20.5019764,3.41686105 20.5596189,3.73192269 20.7797524,3.89786738 C20.8706317,3.96684439 20.9761223,4 21.0814524,4 C21.2301348,4 21.3781749,3.93302233 21.4790092,3.80473176 L22.000361,3.14478507 L22.5215522,3.80473176 C22.623671,3.93435521 22.7755646,3.99866711 22.9247287,4 C23.2070005,3.99800067 23.4353227,3.75991336 23.4353227,3.467011 C23.4353227,3.34338554 23.3945394,3.22942353 23.3261391,3.13895368 L22.9078695,2.46084638 L23.6731182,2.15044985 C23.9271306,2.04748417 24.0587932,1.75724758 23.9746576,1.48917028 C23.8906826,1.22042652 23.6198109,1.06747751 23.3563251,1.1377874 L22.5610509,1.35371543 L22.5133634,0.501832722 C22.4969858,0.220093302 22.2725172,0 22.000361,0 C21.7280442,0 21.5029333,0.220093302 21.487198,0.501832722 L21.4395104,1.35371543 L20.6442362,1.1377874 C20.380911,1.06747751 20.1092365,1.22042652 20.0252615,1.48917028 C19.9411259,1.75724758 20.0735913,2.04748417 20.3269615,2.15044985 Z" id="Fill-7"></path>
            <path d="M43.7137626,46.6331396 C43.5376958,46.5457337 43.3270385,46.5620324 43.1675291,46.6750049 L41.7658795,47.6687469 L40.3627545,46.6750049 C40.2032451,46.5620324 39.9919321,46.5457337 39.8158652,46.6331396 C39.6404541,46.7205454 39.5296336,46.8964756 39.5296336,47.0888643 L39.5296336,50.4762797 L37.4119132,50.4762797 L37.4119132,47.0888643 C37.4119132,46.8964756 37.3010927,46.7205454 37.1250259,46.6331396 C36.948959,46.5457337 36.7383017,46.5620324 36.5787924,46.675644 L35.1769788,47.6687469 L33.7751653,46.675644 C33.6158199,46.5620324 33.4045068,46.5457337 33.228276,46.6331396 C33.0528649,46.7205454 32.9420444,46.8964756 32.9420444,47.0888643 L32.9420444,50.4762797 L30.8198977,50.4762797 L30.8198977,42.8705342 C30.8198977,42.5878634 30.5848141,42.3593619 30.2954677,42.3593619 L30.0328428,42.3593619 L30.0328428,39.9219056 C30.0328428,39.6392349 29.7985788,39.4107333 29.5084127,39.4107333 C29.2189024,39.4107333 28.9839827,39.6392349 28.9839827,39.9219056 L28.9839827,42.3593619 L28.2628298,42.3593619 L28.2628298,32.7718849 C28.2628298,32.4890543 28.0279101,32.2600734 27.737744,32.2600734 L26.8201963,32.2600734 L26.8201963,20.5635112 C26.8201963,20.2813198 26.5851126,20.0521791 26.2956023,20.0521791 L25.2518242,20.0521791 L22.4175412,5.41641608 C22.3708195,5.17481166 22.1544245,5 21.9021275,5 C21.6496667,5 21.4332717,5.17481166 21.38655,5.41641608 L18.552267,20.0521791 L17.5084888,20.0521791 C17.2189785,20.0521791 16.9840588,20.2813198 16.9840588,20.5635112 L16.9840588,32.2600734 L16.0656914,32.2600734 C15.7761811,32.2600734 15.5412613,32.4890543 15.5412613,32.7712457 L15.5412613,42.3587227 L14.7542064,42.3587227 L14.7542064,39.9219056 C14.7542064,39.6392349 14.5191227,39.4100942 14.2297763,39.4100942 C13.940266,39.4100942 13.7053462,39.6392349 13.7053462,39.9219056 L13.7053462,42.3587227 L13.4427214,42.3587227 C13.153211,42.3587227 12.9182913,42.5878634 12.9182913,42.8705342 L12.9182913,50.4762797 L11.0586055,50.4762797 L11.0586055,47.0888643 C11.0586055,46.8964756 10.9477851,46.7205454 10.7717182,46.6331396 C10.5963071,46.5457337 10.3849941,46.5620324 10.2254847,46.6750049 L8.82367115,47.6687469 L7.42185761,46.6750049 C7.26251218,46.5620324 7.05119916,46.5457337 6.8751323,46.6331396 C6.69955724,46.7205454 6.58873676,46.8964756 6.58873676,47.0888643 L6.58873676,50.4762797 L4.47052453,50.4762797 L4.47052453,47.0888643 C4.47052453,46.8964756 4.36035979,46.7205454 4.18412899,46.6331396 C4.00871787,46.5457337 3.79740485,46.5620324 3.63789548,46.6750049 L2.23493439,47.6687469 L0.833120853,46.6750049 C0.673611488,46.5620324 0.462298466,46.5457337 0.286231604,46.6331396 C0.110820483,46.7205454 0,46.8964756 0,47.0888643 L0,59.4881885 C0,59.7710191 0.235083688,60 0.524430069,60 L43.4755642,60 C43.7657302,60 44,59.7710191 44,59.4881885 L44,47.0888643 C44.00065,46.8964756 43.8899934,46.7205454 43.7137626,46.6331396 Z M13.9671514,43.3817065 L16.5574983,43.3817065 L16.5574983,46.9864381 C16.5574983,47.2692686 16.7925819,47.4976104 17.0819283,47.4976104 C17.3720944,47.4976104 17.6070141,47.2692686 17.6070141,46.9864381 L17.6070141,43.3817065 L21.3442546,43.3817065 L21.3442546,46.9864381 C21.3442546,47.2692686 21.5793383,47.4976104 21.8693404,47.4976104 C22.1588507,47.4976104 22.3939344,47.2692686 22.3939344,46.9864381 L22.3939344,43.3817065 L26.1316667,43.3817065 L26.1316667,46.9864381 C26.1316667,47.2692686 26.3660946,47.4976104 26.6562607,47.4976104 C26.9456071,47.4976104 27.1806908,47.2692686 27.1806908,46.9864381 L27.1806908,43.3817065 L29.7710376,43.3817065 L29.7710376,54.2475138 L13.9671514,54.2475138 L13.9671514,43.3817065 Z M24.3283748,28.1055 L25.7705165,28.1055 L25.7705165,21.0746835 L24.3283748,21.0746835 L24.3283748,28.1055 Z M20.5245765,28.1055 L23.2788589,28.1055 L23.2788589,21.0746835 L20.5245765,21.0746835 L20.5245765,28.1055 Z M21.9021275,8.26821112 L24.1837836,20.0521791 L19.6198158,20.0521791 L21.9021275,8.26821112 Z M18.0329189,28.1055 L19.4757163,28.1055 L19.4757163,21.0746835 L18.0329189,21.0746835 L18.0329189,28.1055 Z M18.0329189,32.2600734 L25.7705165,32.2600734 L25.7705165,29.1284838 L18.0329189,29.1284838 L18.0329189,32.2600734 Z M16.5901214,42.3587227 L27.213314,42.3587227 L27.213314,33.2830572 L16.5901214,33.2830572 L16.5901214,42.3587227 Z M1.04951588,48.0931525 L1.92624361,48.7141014 C2.11001545,48.8446509 2.35985334,48.8446509 2.54362518,48.7147406 L3.4221562,48.0925133 L3.4221562,50.987452 C3.4221562,51.2702826 3.65658414,51.4986243 3.94658627,51.4986243 L7.1139865,51.4986243 C7.40333288,51.4986243 7.63841657,51.2702826 7.63841657,50.987452 L7.63841657,48.0925133 L8.51563611,48.7141014 C8.69940795,48.8446509 8.9485901,48.8446509 9.13236193,48.7141014 L10.0097454,48.0925133 L10.0097454,50.987452 C10.0097454,51.2702826 10.2446652,51.4986243 10.5341755,51.4986243 L12.9182913,51.4986243 L12.9182913,58.9770162 L1.04951588,58.9770162 L1.04951588,48.0931525 Z M13.9671514,58.9770162 L29.7710376,58.9770162 L29.7710376,55.2700182 L13.9671514,55.2700182 L13.9671514,58.9770162 Z M42.9511341,58.9770162 L30.8198977,58.9770162 L30.8198977,51.4992635 L33.4666384,51.4992635 C33.7559848,51.4992635 33.9910685,51.2702826 33.9910685,50.987452 L33.9910685,48.0931525 L34.868288,48.7141014 C35.0520599,48.8446509 35.301242,48.8446509 35.4856696,48.7141014 L36.3623973,48.0931525 L36.3623973,50.987452 C36.3623973,51.2702826 36.5973171,51.4992635 36.8868274,51.4992635 L40.0540637,51.4992635 C40.3442298,51.4992635 40.5791495,51.2702826 40.5791495,50.987452 L40.5791495,48.0925133 L41.4578445,48.7147406 C41.6416163,48.8446509 41.8906345,48.8452901 42.0744064,48.7147406 L42.9517898,48.0931525 L42.9517898,58.9770162 L42.9511341,58.9770162 Z" id="Fill-8"></path>
            <path d="M22.5556636,37.1173793 L21.8888117,37.1173793 L21.8888117,36.4412414 C21.8888117,36.1976552 21.6896312,36 21.4444753,36 C21.1986249,36 21,36.1976552 21,36.4412414 L21,37.5587586 C21,37.8022069 21.1986249,38 21.4444753,38 L22.5556636,38 C22.8008195,38 23,37.8022069 23,37.5587586 C23,37.3151724 22.8008195,37.1173793 22.5556636,37.1173793 Z" id="Fill-9"></path>
        </g>
    </g>
</svg>