<?xml version="1.0" encoding="UTF-8"?>
<svg width="50px" height="48px" viewBox="0 0 50 48" version="1.1" xmlns="http://www.w3.org/2000/svg" xmlns:xlink="http://www.w3.org/1999/xlink">
    <!-- Generator: Sketch 48.1 (47250) - http://www.bohemiancoding.com/sketch -->
    <title>car-first-aid-kit</title>
    <desc>Created with Sketch.</desc>
    <defs></defs>
    <g id="Главная-HR-Usetech(var.0.3_13_11_2017)-Copy" stroke="none" stroke-width="1" fill="none" fill-rule="evenodd" transform="translate(-1591.000000, -2264.000000)">
        <g id="car-first-aid-kit" transform="translate(1591.000000, 2264.000000)" fill="#616161" fill-rule="nonzero">
            <path d="M41.9505698,9.53418803 L38.4019943,9.53418803 L38.4019943,6.06182336 C38.4019943,2.73333333 35.6940171,0.0253561254 32.3655271,0.0253561254 L17.5529915,0.0253561254 C14.2245014,0.0253561254 11.5165242,2.73333333 11.5165242,6.06182336 L11.5165242,9.53418803 L7.96794872,9.53418803 C3.57435897,9.53418803 0,13.1084046 0,17.5019943 L0,39.6460114 C0,44.0396011 3.57435897,47.6139601 7.96794872,47.6139601 L41.9507123,47.6139601 C46.344302,47.6139601 49.918661,44.0396011 49.918661,39.6460114 L49.918661,17.5019943 C49.9185185,13.1084046 46.3441595,9.53418803 41.9505698,9.53418803 Z M14.0806268,6.06182336 C14.0806268,4.147151 15.6383191,2.58945869 17.5529915,2.58945869 L32.3655271,2.58945869 C34.2801994,2.58945869 35.8378917,4.147151 35.8378917,6.06182336 L35.8378917,9.53418803 L14.0806268,9.53418803 L14.0806268,6.06182336 Z M47.354416,39.6460114 C47.354416,42.625641 44.9301994,45.0498575 41.9505698,45.0498575 L7.96794872,45.0498575 C4.98831909,45.0498575 2.56410256,42.625641 2.56410256,39.6460114 L2.56410256,17.5019943 C2.56410256,14.5223647 4.98831909,12.0981481 7.96794872,12.0981481 L41.9507123,12.0981481 C44.9303419,12.0981481 47.3545584,14.5223647 47.3545584,17.5019943 L47.3545584,39.6460114 L47.354416,39.6460114 Z M33.488604,23.718661 L29.8145299,23.718661 L29.8145299,20.0448718 C29.8145299,18.5910256 28.6317664,17.4082621 27.1779202,17.4082621 L22.7405983,17.4082621 C21.2867521,17.4082621 20.1039886,18.5910256 20.1039886,20.0448718 L20.1039886,23.718661 L16.4299145,23.718661 C14.9760684,23.718661 13.7933048,24.901567 13.7933048,26.3554131 L13.7933048,30.792735 C13.7933048,32.2465812 14.9760684,33.4294872 16.4299145,33.4294872 L20.1039886,33.4294872 L20.1039886,37.1032764 C20.1039886,38.5569801 21.2867521,39.7397436 22.7405983,39.7397436 L27.1779202,39.7397436 C28.6317664,39.7397436 29.8145299,38.5569801 29.8145299,37.1032764 L29.8145299,33.4294872 L33.488604,33.4294872 C34.9421652,33.4294872 36.1246439,32.2465812 36.1246439,30.792735 L36.1246439,26.3554131 C36.1246439,24.901567 34.9421652,23.718661 33.488604,23.718661 Z M33.5605413,30.792735 C33.5605413,30.830057 33.525641,30.8653846 33.488604,30.8653846 L28.5324786,30.8653846 C27.824359,30.8653846 27.2504274,31.4393162 27.2504274,32.1474359 L27.2504274,37.1032764 C27.2504274,37.1404558 27.2152422,37.175641 27.1779202,37.175641 L22.7405983,37.175641 C22.7032764,37.175641 22.6680912,37.1404558 22.6680912,37.1032764 L22.6680912,32.1474359 C22.6680912,31.4393162 22.0941595,30.8653846 21.3860399,30.8653846 L16.4299145,30.8653846 C16.3933048,30.8653846 16.3574074,30.8293447 16.3574074,30.792735 L16.3574074,26.3554131 C16.3574074,26.3180912 16.3925926,26.2827635 16.4299145,26.2827635 L21.3860399,26.2827635 C22.0941595,26.2827635 22.6680912,25.7088319 22.6680912,25.0007123 L22.6680912,20.0448718 C22.6680912,20.0082621 22.7039886,19.9723647 22.7405983,19.9723647 L27.1779202,19.9723647 C27.2152422,19.9723647 27.2504274,20.0075499 27.2504274,20.0448718 L27.2504274,25.0007123 C27.2504274,25.7088319 27.824359,26.2827635 28.5324786,26.2827635 L33.488604,26.2827635 C33.525641,26.2827635 33.5605413,26.3180912 33.5605413,26.3554131 L33.5605413,30.792735 Z" id="Shape"></path>
        </g>
    </g>
</svg>