<?xml version="1.0" encoding="UTF-8"?>
<svg width="64px" height="64px" viewBox="0 0 64 64" version="1.1" xmlns="http://www.w3.org/2000/svg" xmlns:xlink="http://www.w3.org/1999/xlink">
    <!-- Generator: Sketch 56.3 (81716) - https://sketch.com -->
    <title>cofe / doc</title>
    <desc>Created with Sketch.</desc>
    <defs>
        <polygon id="path-1" points="43.869 55.93 0.07 55.93 0.07 0 21.9695 0 43.869 0"></polygon>
    </defs>
    <g id="cofe-/-doc" stroke="none" stroke-width="1" fill="none" fill-rule="evenodd">
        <g id="diploma" transform="translate(10.000000, 4.000000)">
            <g id="Group-3">
                <mask id="mask-2" fill="white">
                    <use xlink:href="#path-1"></use>
                </mask>
                <g id="Clip-2"></g>
                <path d="M30.2516667,0 L0,0 L0,56 L43.869,56 L43.869,13.6126667 L30.2516667,0 Z M30.7976667,3.185 L40.6781667,13.0655 L30.7976667,13.0655 L30.7976667,3.185 Z M1.869,54.131 L1.869,1.869 L28.9345,1.869 L28.9345,14.9345 L42,14.9345 L42,54.131 L1.869,54.131 Z" id="Fill-1" fill="#616161" mask="url(#mask-2)"></path>
            </g>
            <path d="M9.33333333,15.869 L17.7321667,15.869 C18.2478333,15.869 18.6666667,15.449 18.6666667,14.9345 C18.6666667,14.4188333 18.2478333,14 17.7321667,14 L9.33333333,14 C8.81883333,14 8.39883333,14.4188333 8.39883333,14.9345 C8.39883333,15.449 8.81883333,15.869 9.33333333,15.869 Z" id="Fill-4" fill="#616161"></path>
            <path d="M9.33333333,23.3333333 L14,23.3333333 C14.5145,23.3333333 14.9345,22.9145 14.9345,22.3988333 C14.9345,21.8843333 14.5145,21.4643333 14,21.4643333 L9.33333333,21.4643333 C8.81883333,21.4643333 8.39883333,21.8843333 8.39883333,22.3988333 C8.39883333,22.9145 8.81883333,23.3333333 9.33333333,23.3333333 Z" id="Fill-5" fill="#616161"></path>
            <path d="M23.3333333,23.3333333 L29.869,23.3333333 C30.3835,23.3333333 30.7976667,22.9145 30.7976667,22.3988333 C30.7976667,21.8843333 30.3835,21.4643333 29.869,21.4643333 L23.3333333,21.4643333 C22.8188333,21.4643333 22.3988333,21.8843333 22.3988333,22.3988333 C22.3988333,22.9145 22.8188333,23.3333333 23.3333333,23.3333333 Z" id="Fill-6" fill="#616161"></path>
            <path d="M18.0063333,21.7478333 C17.8278333,21.9158333 17.7321667,22.1573333 17.7321667,22.3988333 C17.7321667,22.6403333 17.8278333,22.8865 18.0063333,23.065 C18.179,23.2283333 18.4251667,23.3333333 18.6666667,23.3333333 C18.9081667,23.3333333 19.1496667,23.2376667 19.327,23.0556667 C19.4961667,22.8818333 19.6011667,22.6403333 19.6011667,22.3988333 C19.6011667,22.1573333 19.4961667,21.9111667 19.327,21.7385 C18.977,21.392 18.3481667,21.392 18.0063333,21.7478333 Z" id="Fill-7" fill="#616161"></path>
            <path d="M34.5356667,23.3333333 C34.7771667,23.3333333 35.0186667,23.2283333 35.196,23.065 C35.364,22.8865 35.4643333,22.6403333 35.4643333,22.3988333 C35.4643333,22.1573333 35.364,21.9111667 35.196,21.7385 C34.8401667,21.392 34.2253333,21.392 33.8695,21.7385 C33.7015,21.9111667 33.6011667,22.1573333 33.6011667,22.3988333 C33.6011667,22.6403333 33.7015,22.8865 33.8695,23.065 C34.048,23.2283333 34.2895,23.3333333 34.5356667,23.3333333 Z" id="Fill-8" fill="#616161"></path>
            <path d="M20.5356667,28.9345 L14,28.9345 C13.4855,28.9345 13.0655,29.3486667 13.0655,29.869 C13.0655,30.3835 13.4855,30.7976667 14,30.7976667 L20.5356667,30.7976667 C21.0501667,30.7976667 21.4643333,30.3835 21.4643333,29.869 C21.4643333,29.3486667 21.0501667,28.9345 20.5356667,28.9345 Z" id="Fill-9" fill="#616161"></path>
            <path d="M9.33333333,30.7976667 C9.57483333,30.7976667 9.81633333,30.6973333 9.99366667,30.5293333 C10.1721667,30.352 10.2678333,30.1105 10.2678333,29.869 C10.2678333,29.6228333 10.1721667,29.3813333 9.99366667,29.2028333 C9.64366667,28.8563333 9.023,28.8563333 8.673,29.2028333 C8.4945,29.3813333 8.39883333,29.6135 8.39883333,29.869 C8.39883333,30.1105 8.50383333,30.352 8.673,30.5293333 C8.84566667,30.6973333 9.09183333,30.7976667 9.33333333,30.7976667 Z" id="Fill-10" fill="#616161"></path>
            <path d="M12.2686667,37.4885 C10.227,38.5501667 9.53866667,40.5871667 9.28783333,42.6976667 C8.9005,42.3733333 8.51316667,42.0501667 8.12583333,41.727 C7.21,40.9605 5.8835,42.273 6.80866667,43.0476667 C7.679,43.7768333 8.554,44.5106667 9.42433333,45.2398333 C10.0391667,45.7555 10.9923333,45.4311667 11.0191667,44.5841667 C11.088,42.56 11.1836667,40.159 13.2113333,39.102 C14.2776667,38.5455 13.335,36.932 12.2686667,37.4885 Z" id="Fill-11" fill="#616161"></path>
            <path d="M18.4753333,41.2113333 C17.1815,41.5123333 15.7138333,43.1573333 14.8026667,41.3116667 C14.2683333,40.2313333 12.6606667,41.1798333 13.1891667,42.2508333 C13.6721667,43.2308333 14.588,43.9191667 15.6811667,44.0556667 C16.233,44.1233333 16.7346667,44.0463333 17.2585,43.8456667 C17.6365,43.6951667 19.0633333,42.6241667 19.3725,43.176 C19.9558333,44.2236667 21.5693333,43.2856667 20.986,42.2321667 C20.4855,41.335 19.4693333,40.9791667 18.4753333,41.2113333 Z" id="Fill-12" fill="#616161"></path>
            <path d="M37.5608333,32.2105 C37.3426667,32.1335 37.247,31.969 37.2108333,31.878 C37.1735,31.787 37.1233333,31.605 37.2236667,31.395 C37.6751667,30.4383333 37.4885,29.3393333 36.7406667,28.5926667 C35.994,27.8495 34.8903333,27.6581667 33.943,28.1096667 C33.7283333,28.21 33.5463333,28.1598333 33.4553333,28.1225 C33.3643333,28.0863333 33.1998333,27.9906667 33.1228333,27.7725 C32.767,26.7738333 31.8558333,26.131 30.7976667,26.131 C29.7453333,26.131 28.8341667,26.7738333 28.4783333,27.7725 C28.4013333,27.9906667 28.2368333,28.0863333 28.1458333,28.1225 C28.0548333,28.1598333 27.8681667,28.21 27.6581667,28.1096667 C26.7061667,27.6581667 25.6071667,27.8448333 24.8605,28.5926667 C24.1126667,29.3393333 23.926,30.4383333 24.3775,31.3903333 C24.4766667,31.605 24.4276667,31.787 24.3903333,31.878 C24.3495,31.969 24.2538333,32.1335 24.0391667,32.2105 C23.0416667,32.5663333 22.3988333,33.4775 22.3988333,34.5356667 C22.3988333,35.588 23.0416667,36.4991667 24.0391667,36.855 C24.2538333,36.932 24.3495,37.0965 24.3903333,37.1875 C24.4276667,37.2785 24.4766667,37.4651667 24.3775,37.6751667 C23.926,38.6271667 24.1126667,39.7261667 24.8605,40.4728333 C25.2198333,40.8333333 25.6666667,41.0608333 26.131,41.1518333 L26.131,52.6551667 L30.7976667,47.9885 L35.4643333,52.6551667 L35.4643333,41.1518333 C35.9345,41.0608333 36.3813333,40.8333333 36.7406667,40.4728333 C37.4885,39.7261667 37.6751667,38.6271667 37.2236667,37.6751667 C37.1233333,37.4651667 37.1735,37.2785 37.2108333,37.1875 C37.247,37.0965 37.3426667,36.932 37.5608333,36.855 C38.5595,36.4991667 39.2023333,35.588 39.2023333,34.5356667 C39.2023333,33.4775 38.5595,32.5663333 37.5608333,32.2105 Z M30.7976667,45.3448333 L28,48.1483333 L28,40.9056667 C28.0093333,40.9056667 28.0186667,40.9056667 28.0233333,40.9103333 C28.0723333,40.9196667 28.1143333,40.929 28.1458333,40.943 C28.1913333,40.9605 28.2555,40.9978333 28.3185,41.0526667 C28.378,41.1063333 28.4421667,41.1845 28.4783333,41.2941667 C28.8341667,42.2916667 29.7453333,42.9345 30.7976667,42.9345 C31.8558333,42.9345 32.767,42.2916667 33.1228333,41.2941667 C33.159,41.1845 33.2185,41.1063333 33.2815,41.0526667 C33.3456667,40.9978333 33.4098333,40.9605 33.4553333,40.943 C33.4821667,40.9336667 33.5276667,40.9196667 33.5731667,40.9103333 C33.5825,40.9103333 33.5918333,40.9056667 33.6011667,40.9056667 L33.6011667,48.1483333 L30.7976667,45.3448333 Z M36.9366667,35.0956667 C36.281,35.3278333 35.7525,35.8295 35.4876667,36.4723333 C35.2193333,37.114 35.2368333,37.8478333 35.5378333,38.4766667 C35.7023333,38.8185 35.511,39.0646667 35.4188333,39.1556667 C35.3465,39.2291667 35.1551667,39.361 34.895,39.3108333 L34.6896667,39.2478333 C34.6033333,39.2105 34.517,39.1883333 34.426,39.1603333 C34.3618333,39.1428333 34.2976667,39.1148333 34.2346667,39.0973333 C34.1436667,39.0786667 34.048,39.074 33.9523333,39.06 C33.8788333,39.0518333 33.8065,39.0378333 33.7283333,39.0378333 C33.6373333,39.0331667 33.551,39.0471667 33.46,39.0565 C33.3818333,39.0646667 33.3048333,39.06 33.2266667,39.0786667 C33.0586667,39.1066667 32.8988333,39.1556667 32.739,39.2198333 C32.6981667,39.2385 32.662,39.2653333 32.6211667,39.284 C32.5068333,39.3388333 32.389,39.3936667 32.284,39.466 C32.1603333,39.5523333 32.0425,39.6573333 31.9375,39.767 C31.9235,39.7763333 31.9106667,39.7856667 31.8966667,39.7985 C31.6598333,40.0493333 31.4766667,40.3456667 31.3588333,40.6735 C31.2351667,41.0293333 30.926,41.0655 30.7976667,41.0655 C30.6751667,41.0655 30.3648333,41.0293333 30.2376667,40.6688333 C30.1186667,40.341 29.9366667,40.0446667 29.6998333,39.7985 C29.6905,39.7891667 29.6811667,39.781 29.6683333,39.7716667 C29.5586667,39.6573333 29.4396667,39.557 29.3125,39.466 C29.2121667,39.3983333 29.0978333,39.3435 28.9893333,39.2886667 C28.9438333,39.27 28.9018333,39.2385 28.8563333,39.2198333 C28.8388333,39.2105 28.8155,39.2058333 28.798,39.2023333 C28.6603333,39.1475 28.5238333,39.1066667 28.3826667,39.0786667 C28.2683333,39.0565 28.1551667,39.0518333 28.0408333,39.0425 C28,39.0425 27.9591667,39.0331667 27.9183333,39.0331667 C27.9136667,39.0331667 27.9136667,39.0331667 27.909,39.0331667 C27.5578333,39.0331667 27.2206667,39.102 26.9336667,39.2431667 L26.719,39.3061667 C26.4506667,39.3656667 26.2546667,39.2291667 26.1811667,39.1521667 C26.0901667,39.06 25.8988333,38.8185 26.0633333,38.4731667 C26.3596667,37.8443333 26.3771667,37.114 26.1135,36.4723333 C25.8486667,35.8295 25.3155,35.3278333 24.6645,35.0956667 C24.304,34.9685 24.2678333,34.6581667 24.2678333,34.5356667 C24.2678333,34.4073333 24.304,34.0981667 24.6645,33.9698333 C25.3201667,33.7376667 25.8486667,33.236 26.1135,32.5943333 C26.3818333,31.9515 26.3643333,31.2223333 26.0633333,30.5888333 C25.8988333,30.247 26.0901667,30.0008333 26.1811667,29.9145 C26.2733333,29.8223333 26.5148333,29.631 26.8601667,29.7955 C27.489,30.0918333 28.2193333,30.114 28.861,29.8456667 C29.5038333,29.5808333 30.0055,29.0476667 30.2376667,28.3966667 C30.3648333,28.0361667 30.6751667,28 30.7976667,28 C30.926,28 31.2351667,28.0361667 31.3635,28.3966667 C31.5956667,29.0523333 32.0973333,29.5808333 32.739,29.8456667 C33.3818333,30.114 34.111,30.0965 34.7445,29.7955 C35.0863333,29.631 35.3325,29.8223333 35.4188333,29.9145 C35.511,30.0055 35.7023333,30.247 35.5378333,30.5935 C35.2415,31.2223333 35.2228333,31.9515 35.4876667,32.5943333 C35.7525,33.236 36.2856667,33.7423333 36.9366667,33.9745 C37.2971667,34.0981667 37.3333333,34.4073333 37.3333333,34.5356667 C37.3333333,34.6581667 37.2971667,34.9685 36.9366667,35.0956667 Z" id="Fill-13" fill="#616161"></path>
        </g>
    </g>
</svg>