<svg width="55" height="55" viewBox="0 0 55 55" fill="none" xmlns="http://www.w3.org/2000/svg">
<g clip-path="url(#clip0)">
<path d="M51.3477 11.4375H49.1971L49.1992 7.59296C49.2005 5.0119 47.102 2.91088 44.5205 2.90962L28.1991 2.90039C28.1982 2.90039 28.1978 2.90039 28.197 2.90039C27.268 2.90039 26.3943 3.2621 25.7372 3.91922L1.37089 28.2855C0.486755 29.1697 0 30.345 0 31.5955C0 32.8459 0.486755 34.0213 1.37089 34.9054L17.1837 50.7182C18.0964 51.6309 19.2952 52.087 20.4937 52.087C21.6925 52.087 22.8913 51.6309 23.804 50.7182L39.1452 35.377C39.5648 34.9574 39.5648 34.2772 39.1452 33.858C38.7256 33.4384 38.0454 33.4384 37.6258 33.858L22.2846 49.1992C21.2972 50.1866 19.6905 50.1866 18.7032 49.1992L2.89032 33.3864C2.41196 32.908 2.14844 32.2719 2.14844 31.5955C2.14844 30.919 2.41196 30.2829 2.89032 29.8045L27.2562 5.43865C27.5076 5.1873 27.8416 5.04883 28.197 5.04883H28.1978L44.5192 5.05806C45.9157 5.05848 47.0516 6.19564 47.0508 7.59212L47.0457 16.5937H42.2071C41.7905 16.5937 41.4132 16.4234 41.1405 16.1489C41.5899 15.9563 42.0112 15.6781 42.3775 15.3118C43.9213 13.7676 43.9213 11.2558 42.3775 9.71203C40.8333 8.16784 38.3215 8.16784 36.7773 9.71203C35.2335 11.2558 35.2335 13.7676 36.7773 15.3118C37.3497 15.8842 38.0555 16.2438 38.7952 16.3919C39.321 17.7645 40.6516 18.7422 42.2071 18.7422H47.0445L47.0415 23.8917C47.0415 24.2471 46.9031 24.5807 46.6517 24.8317L43.7027 27.7811C43.283 28.2008 43.283 28.881 43.7027 29.3006C44.1219 29.7198 44.8021 29.7198 45.2217 29.3006L48.1712 26.3511C48.8274 25.6944 49.1896 24.8216 49.19 23.893L49.1929 18.7422H51.3477C53.3614 18.7422 55 17.104 55 15.0898C55 13.0761 53.3614 11.4375 51.3477 11.4375V11.4375ZM38.2967 11.231C38.6501 10.8777 39.1137 10.7015 39.5778 10.7015C40.0415 10.7015 40.5052 10.8781 40.8585 11.231C40.9701 11.3431 41.0624 11.4669 41.1388 11.5974C39.9597 11.9587 39.0332 12.9024 38.6945 14.0916C38.5523 14.0123 38.4176 13.9137 38.2967 13.7928C37.5905 13.0862 37.5905 11.9373 38.2967 11.231V11.231ZM51.3477 16.5937H49.1942L49.1959 13.5859H51.3477C52.1768 13.5859 52.8516 14.2607 52.8516 15.0898C52.8516 15.919 52.1768 16.5937 51.3477 16.5937Z" fill="#616161"/>
<path d="M17.3394 30.0034C17.4716 30.4789 17.9034 30.7898 18.3733 30.7898C18.469 30.7898 18.5659 30.7772 18.662 30.7504L29.6895 27.6809C30.2611 27.5218 30.5955 26.9293 30.4365 26.3578C30.2774 25.7867 29.6853 25.4523 29.1134 25.6113L18.0859 28.6804C17.5148 28.8398 17.1804 29.4319 17.3394 30.0034V30.0034Z" fill="#616161"/>
<path d="M22.1934 31.4209C21.595 32.0193 21.2656 32.8144 21.2656 33.6608C21.2656 34.5068 21.595 35.3019 22.1934 35.9003C22.8111 36.5176 23.6218 36.8264 24.4329 36.8264C25.244 36.8264 26.0551 36.5176 26.6728 35.9003C27.9077 34.6654 27.9077 32.6558 26.6728 31.4209C25.4379 30.186 23.4283 30.186 22.1934 31.4209ZM25.1534 34.3809C24.756 34.7782 24.1098 34.7782 23.7124 34.3809C23.5198 34.1887 23.4141 33.9327 23.4141 33.6604C23.4141 33.3885 23.5202 33.1325 23.7124 32.9399C23.9113 32.7414 24.1723 32.642 24.4329 32.642C24.6939 32.642 24.9549 32.7414 25.1534 32.9399C25.5507 33.3373 25.5507 33.9839 25.1534 34.3809Z" fill="#616161"/>
<path d="M27.2049 25.0251C28.4399 23.7897 28.4399 21.7806 27.2049 20.5457C26.6065 19.9473 25.811 19.6179 24.965 19.6179C24.1191 19.6179 23.3235 19.9473 22.7255 20.5457C21.4906 21.7806 21.4906 23.7897 22.7255 25.0251C23.3432 25.6424 24.1539 25.9512 24.965 25.9512C25.7761 25.9512 26.5872 25.6424 27.2049 25.0251ZM24.2445 22.0647C24.4371 21.8721 24.6931 21.7664 24.965 21.7664C25.2373 21.7664 25.4933 21.8721 25.6855 22.0647C26.0829 22.4621 26.0829 23.1083 25.6855 23.5057C25.2885 23.903 24.6419 23.903 24.2445 23.5057C23.8476 23.1083 23.8476 22.4621 24.2445 22.0647Z" fill="#616161"/>
<path d="M10.6843 27.7837C10.2647 27.364 9.58447 27.364 9.16486 27.7837L6.11256 30.8359C5.91115 31.0374 5.79785 31.3105 5.79785 31.5954C5.79785 31.8804 5.91115 32.1535 6.11256 32.355L19.7346 45.977C19.944 46.1864 20.2192 46.2913 20.4941 46.2913C20.7689 46.2913 21.0438 46.1864 21.2536 45.977L41.6201 25.61C42.0397 25.1904 42.0397 24.5102 41.6201 24.0906L27.9985 10.469C27.7971 10.2676 27.5239 10.1543 27.239 10.1543C26.9541 10.1543 26.6809 10.2676 26.4795 10.469L15.2417 21.7068C14.8221 22.1264 14.8221 22.8066 15.2417 23.2262C15.6609 23.6454 16.3411 23.6454 16.7608 23.2262L27.239 12.7479L39.3416 24.8505L20.4941 43.698L8.3915 31.5954L10.6843 29.3027C11.1035 28.883 11.1039 28.2033 10.6843 27.7837V27.7837Z" fill="#616161"/>
<path d="M41.4243 30.5049C41.1415 30.5049 40.8645 30.6199 40.6648 30.8196C40.4651 31.0193 40.3501 31.2967 40.3501 31.5791C40.3501 31.8615 40.4651 32.1389 40.6648 32.3386C40.8645 32.5383 41.1415 32.6533 41.4243 32.6533C41.7067 32.6533 41.9837 32.5383 42.1838 32.3386C42.3836 32.1389 42.4985 31.8615 42.4985 31.5791C42.4985 31.2967 42.3836 31.0193 42.1838 30.8196C41.9837 30.6199 41.7067 30.5049 41.4243 30.5049Z" fill="#616161"/>
<path d="M13.722 26.2638C13.923 26.0641 14.0371 25.788 14.0371 25.5043C14.0371 25.2219 13.923 24.9458 13.722 24.7448C13.5222 24.5451 13.2461 24.4301 12.9629 24.4301C12.6801 24.4301 12.4031 24.5451 12.2034 24.7448C12.0032 24.9446 11.8887 25.2219 11.8887 25.5043C11.8887 25.788 12.0032 26.0641 12.2034 26.2638C12.404 26.4648 12.6801 26.5786 12.9629 26.5786C13.2461 26.5786 13.5222 26.4648 13.722 26.2638Z" fill="#616161"/>
</g>
<defs>
<clipPath id="clip0">
<rect width="55" height="55" fill="white"/>
</clipPath>
</defs>
</svg>
