<?xml version="1.0" encoding="UTF-8"?>
<svg width="47px" height="58px" viewBox="0 0 47 58" version="1.1" xmlns="http://www.w3.org/2000/svg" xmlns:xlink="http://www.w3.org/1999/xlink">
    <!-- Generator: Sketch 48.1 (47250) - http://www.bohemiancoding.com/sketch -->
    <title>placeholder</title>
    <desc>Created with Sketch.</desc>
    <defs></defs>
    <g id="Главная-HR-Usetech(var.0.3_13_11_2017)-Copy" stroke="none" stroke-width="1" fill="none" fill-rule="evenodd" transform="translate(-1640.000000, -2084.000000)">
        <g id="placeholder" transform="translate(1641.000000, 2085.000000)" fill-rule="nonzero" stroke="#616161" stroke-width="2">
            <path d="M22.4704403,0 C10.0964361,0 0.0234800839,10.072956 0.0234800839,22.4469602 C0.0234800839,23.8557652 0.152620545,25.2763103 0.422641509,26.6616352 C0.434381551,26.7438155 0.481341719,26.9903564 0.575262055,27.4129979 C0.91572327,28.9274633 1.42054507,30.4184486 2.07798742,31.8389937 C4.49643606,37.532914 9.81467505,46.2792453 21.4842767,55.6477987 C21.7777778,55.8825996 22.129979,56 22.4821803,56 C22.8343816,56 23.1865828,55.8825996 23.4800839,55.6477987 C35.1379455,46.2792453 40.4679245,37.532914 42.8863732,31.8389937 C43.5438155,30.4184486 44.0486373,28.9392034 44.3890985,27.4129979 C44.4830189,26.9903564 44.529979,26.7438155 44.5417191,26.6616352 C44.8,25.2763103 44.9408805,23.8557652 44.9408805,22.4469602 C44.9174004,10.072956 34.8444444,0 22.4704403,0 Z" id="Shape"></path>
            <path d="M22.4704403,8.44109015 C14.6163522,8.44109015 8.21802935,14.839413 8.21802935,22.693501 C8.21802935,30.5475891 14.6163522,36.9459119 22.4704403,36.9459119 C30.3245283,36.9459119 36.7228512,30.5475891 36.7228512,22.693501 C36.7228512,14.839413 30.3245283,8.44109015 22.4704403,8.44109015 Z" id="Shape"></path>
        </g>
    </g>
</svg>