<?xml version="1.0" encoding="UTF-8"?>
<svg width="64px" height="64px" viewBox="0 0 64 64" version="1.1" xmlns="http://www.w3.org/2000/svg" xmlns:xlink="http://www.w3.org/1999/xlink">
    <!-- Generator: Sketch 56.3 (81716) - https://sketch.com -->
    <title>cofe / palms</title>
    <desc>Created with Sketch.</desc>
    <defs>
        <polygon id="path-1" points="26.5620238 55.9996513 0 55.9996513 0 6.21724894e-15 53.1240476 0 53.1240476 55.9996513 26.5620238 55.9996513"></polygon>
    </defs>
    <g id="cofe-/-palms" stroke="none" stroke-width="1" fill="none" fill-rule="evenodd">
        <g id="palm-tree" transform="translate(5.000000, 4.000000)">
            <mask id="mask-2" fill="white">
                <use xlink:href="#path-1"></use>
            </mask>
            <g id="Clip-2"></g>
            <path d="M43.6513716,15.6173076 C44.7123091,14.750292 45.7898716,14.3024013 46.8396529,14.3024013 C46.8789185,14.3024013 46.9182935,14.3030576 46.9573404,14.3043701 C48.0681529,14.339917 49.032731,14.8611982 49.8326998,15.5578076 C48.2976216,15.3458388 46.1794654,15.244667 43.6513716,15.6173076 Z M48.2404185,20.9709951 C49.0454185,22.0520576 49.5158404,23.347167 49.6011529,24.5978701 C48.3503404,22.9447763 46.3096216,20.4556201 43.8248404,18.1928701 C45.6682466,18.6136357 47.1905279,19.561042 48.2404185,20.9709951 Z M42.3248716,25.2359638 L42.0682779,19.3192138 C42.6307935,20.0690888 43.152731,21.0558701 43.2283091,22.1934795 C43.2957935,23.2067295 42.9927154,24.2246826 42.3248716,25.2359638 Z M35.5483248,17.7718857 C36.277856,17.410292 37.0594498,17.2863701 37.7882154,17.2863701 C38.0757623,17.2863701 38.3549966,17.3056201 38.6195748,17.3372295 L33.3756998,20.0716045 C33.915356,18.9910888 34.6420435,18.2208701 35.5483248,17.7718857 Z M34.1086216,12.8157763 C35.8550123,13.0192138 37.4366841,13.8631513 38.7233716,15.2489326 C35.5206529,14.2295576 32.3446216,13.708167 30.2872779,13.4523388 C31.4129654,12.9004326 32.7697623,12.6598076 34.1086216,12.8157763 Z M40.5228091,10.5910888 C41.0968091,11.5146513 41.2684185,12.7076045 41.0402623,14.1104482 C40.0977779,11.7351513 38.9503248,9.95157321 37.998981,8.72897946 C39.0024966,9.07274508 39.9363404,9.64707321 40.5228091,10.5910888 Z M25.7598091,47.5686982 C25.181981,35.9472763 22.2810279,27.942667 19.9173248,23.2397607 C17.6936216,18.8156513 15.5503091,16.4289795 14.8527154,15.7149795 L14.9258873,14.0265576 C16.0142779,14.9666357 18.5281529,17.7031982 20.9141685,21.9577763 C23.6856216,26.8993388 27.0872935,35.317167 27.7740591,47.5677138 C27.453481,47.5622451 27.1326841,47.5580888 26.810356,47.5580888 C26.4589341,47.5579795 26.1089341,47.5621357 25.7598091,47.5686982 Z M12.7716373,22.5388857 C11.7674654,21.1831826 11.3046998,19.8114013 11.3927466,18.4431201 C11.495231,16.8519326 12.3248404,15.4973232 13.1181373,14.5484951 L12.7716373,22.5388857 Z M3.82766578,21.8068388 C3.821481,20.1351513 4.40313725,18.3541982 5.48846538,16.8965576 C6.8677935,15.0437451 8.919231,13.8533076 11.4089341,13.4243388 C8.05177788,16.394417 5.33030913,19.7840576 3.82766578,21.8068388 Z M7.0821685,10.521417 C5.5587935,10.521417 4.25832475,10.6560576 3.22987163,10.8238388 C4.45377788,9.62246383 5.777981,8.97638571 7.135106,8.93285446 C8.60762163,8.88582321 10.1244341,9.56055758 11.5994654,10.9047763 C9.9416685,10.6259795 8.42551225,10.521417 7.0821685,10.521417 Z M14.6229185,4.61166696 C15.3396529,3.45841696 16.5615904,2.63515133 18.2142466,2.17654196 C16.9726216,3.69433883 15.3516841,6.10288571 14.096606,9.46376071 C13.6705904,7.51404196 13.8448248,5.86390133 14.6229185,4.61166696 Z M22.3420591,7.17060446 C22.6667935,7.13276071 22.9919654,7.11416696 23.3160435,7.11416696 C24.7935904,7.11416696 26.239856,7.49905758 27.4243873,8.18943258 C24.9211216,8.47840133 20.6248716,9.13869821 16.3734654,10.5593701 C17.9904654,8.61862008 20.0478091,7.43780758 22.3420591,7.17060446 Z M23.5832466,16.2996982 L16.4848091,12.5982295 C17.6979966,12.3854951 19.2813091,12.3446982 20.7170748,13.0518076 C21.950606,13.6590576 22.9101529,14.7478857 23.5832466,16.2996982 Z M52.976356,16.5173545 C51.2967935,13.9744951 49.2350748,12.5928701 47.0143248,12.5217763 C45.4336373,12.471792 44.032981,13.0988388 42.8551216,13.9818232 C43.0304498,12.5200263 42.872731,10.9935888 42.0376529,9.64980758 C40.8650435,7.76254196 38.6371841,6.66901071 35.5950279,6.48690133 C35.208606,6.46491696 34.8530279,6.69176071 34.7118248,7.05116696 C34.5705123,7.41079196 34.6769341,7.82018258 34.9751998,8.06572946 C35.0001373,8.08618258 36.7480591,9.55465133 38.3660435,12.5814951 C37.1500123,11.7405107 35.7829341,11.2155107 34.3149029,11.0445576 C31.637731,10.7319638 28.8737154,11.7076982 27.274106,13.5286826 C27.0494498,13.7844013 26.9900591,14.1458857 27.1210904,14.4602295 C27.2521216,14.7745732 27.5508248,14.9868701 27.8905435,15.0073232 C27.9377935,15.010167 31.1251998,15.213167 34.9555123,16.0818232 C34.893606,16.1098232 34.8315904,16.1369482 34.7699029,16.1672451 C32.8651373,17.1052451 31.5722154,18.9656045 30.927231,21.6966982 C30.8470591,22.0363076 30.9721841,22.3914482 31.2475904,22.6057138 C31.4073873,22.7299638 31.6006529,22.7935107 31.7951216,22.7935107 C31.9358873,22.7935107 32.0775279,22.7602607 32.207356,22.6924482 L36.4671841,20.4712607 C34.2983873,23.4125732 31.4191998,28.4030263 29.5671529,35.8703857 C29.4485904,36.3484638 29.7400748,36.8320107 30.2180435,36.9504638 C30.2900123,36.9684013 30.3623091,36.977042 30.4334029,36.977042 C30.833606,36.977042 31.197606,36.7056826 31.2981216,36.299792 C32.9068091,29.814292 35.3409498,25.3186513 37.0998091,22.6893857 C38.5066998,20.5862138 39.716606,19.3100263 40.2598716,18.780542 L40.3187154,20.1383232 C39.7861685,20.7296045 38.0607779,22.8054326 36.276106,26.6836513 C34.4019654,30.7568857 32.1008248,37.6969482 31.6533716,47.7749795 C30.963106,47.7128545 30.2660591,47.6645107 29.5629966,47.629292 C28.8749185,34.8930107 25.3145435,26.1289013 22.4149029,20.9884951 C21.2437154,18.9120107 20.0926529,17.2514795 19.0935123,15.970042 L24.6895748,18.8882763 C24.8195123,18.9559795 24.9608248,18.9893388 25.1018091,18.9893388 C25.2962779,18.9893388 25.4896529,18.9256826 25.649231,18.8014326 C25.9246373,18.5873857 26.0498716,18.2322451 25.9696998,17.8926357 C25.2173091,14.7073076 23.7151529,12.5403701 21.5050123,11.4521982 C21.2783873,11.3406357 21.0500123,11.2436201 20.8208716,11.1591826 C25.5934498,10.0284638 29.6590279,9.76957321 29.7172154,9.76596383 C30.0571529,9.74551071 30.3557466,9.53332321 30.4867779,9.21887008 C30.6178091,8.90452633 30.5585279,8.54315133 30.3337623,8.28732321 C28.4731841,6.16949508 25.2552623,5.03549508 22.1356685,5.39949508 C20.1966685,5.62535446 18.4079498,6.38168258 16.8542779,7.60416696 C18.8677623,3.58015133 21.1996373,1.60538571 21.2300435,1.58012008 C21.5281998,1.33468258 21.6346216,0.925182584 21.4934185,0.565666959 C21.3522154,0.206151334 20.9952154,-0.0200361657 20.610106,0.00140133431 C17.061981,0.213588834 14.4679341,1.48255758 13.1080748,3.67071383 C12.066606,5.34699508 11.9355748,7.27451071 12.217981,9.09276071 C10.7846216,7.93819821 9.04982475,7.08682321 7.07801225,7.15069821 C4.50288725,7.23272946 2.10637163,8.84404196 0.147356001,11.8097451 C-0.0652689989,12.1315263 -0.0460189989,12.5529482 0.193621626,12.8551513 C0.433152876,13.1572451 0.840793501,13.2708857 1.2021685,13.1371201 C1.24077788,13.1229013 4.11744975,12.0904013 8.61090288,12.3609951 C6.77427788,13.0945732 5.22388725,14.2653232 4.057731,15.8315732 C2.1821685,18.3506982 1.55337163,21.7041357 2.45637163,24.3745263 C2.56530913,24.6970732 2.84869975,24.9293857 3.18634038,24.9731357 C3.224731,24.978167 3.26312163,24.9806826 3.30118413,24.9806826 C3.5979185,24.9806826 3.87857475,24.8322607 4.0450435,24.5805888 C4.07709038,24.531917 6.33568413,21.1414013 9.70257475,17.5749013 C9.66101225,17.8156357 9.630606,18.0619482 9.61387163,18.3139482 C9.450356,20.772042 10.5749498,23.1567451 12.9563716,25.4018857 C13.1250279,25.5608076 13.3448716,25.6448076 13.5682154,25.6448076 C13.6811998,25.6448076 13.7950591,25.6233701 13.9035591,25.579292 C14.2267623,25.448042 14.4437623,25.1403701 14.458856,24.7916826 L14.739731,18.3134013 C17.3891216,21.6796357 23.1387466,30.8321357 23.9776529,47.6306045 C20.0294341,47.8332763 16.2839966,48.459667 13.0143404,49.4725888 C8.97227788,50.7246045 5.93974663,52.477667 4.24421538,54.5419013 C4.02524663,54.8083388 3.97963725,55.1771513 4.12707475,55.4889795 C4.27451225,55.8008076 4.5884185,55.9996513 4.93327788,55.9996513 L48.687106,55.9996513 C49.031856,55.9996513 49.3458716,55.8008076 49.4933091,55.4889795 C49.6406373,55.1771513 49.5951373,54.8083388 49.3761685,54.5419013 C47.5300279,52.2940263 43.9907623,50.3705576 39.4107935,49.1253232 C38.9356685,48.9961513 38.4455591,49.2766982 38.3163873,49.7519326 C38.1872154,50.227167 38.4677623,50.717167 38.9429966,50.8464482 C42.0842466,51.7004482 44.667356,52.8669326 46.4490748,54.2161826 L7.17612163,54.2161826 C8.7394185,53.0362451 10.924731,51.9869013 13.5421841,51.1761045 C17.4167935,49.9758232 22.004856,49.3414482 26.810356,49.3414482 C29.7168873,49.3414482 32.5463091,49.5732138 35.219981,50.0306201 C35.7060435,50.1140732 36.1662935,49.7874795 36.2491998,49.3020732 C36.3322154,48.8165576 36.0060591,48.3557607 35.5206529,48.2727451 C34.833231,48.155167 34.1359654,48.0521357 33.4302779,47.9634326 C33.8502779,38.1789638 36.0542935,31.4647607 37.847606,27.5351357 C38.7923873,25.464667 39.7225123,23.9339638 40.4382623,22.8969795 L40.6403873,27.5587607 C40.6555904,27.9074482 40.8725904,28.2151201 41.1957935,28.3463701 C41.3044029,28.3904482 41.4181529,28.4118857 41.5311373,28.4118857 C41.754481,28.4118857 41.9744341,28.3278857 42.142981,28.1689638 C44.1849029,26.2439638 45.1487154,24.1936201 45.0078404,22.0751357 C45.003356,22.006667 44.9956998,21.9394013 44.9889185,21.871917 C47.6575591,24.7536201 49.428231,27.4117607 49.4542623,27.4511357 C49.6205123,27.702917 49.9012779,27.8511201 50.1979029,27.8511201 C50.2359654,27.8511201 50.2744654,27.8486045 50.312856,27.8436826 C50.650606,27.7998232 50.9338873,27.5676201 51.0429341,27.2450732 C51.8191685,24.9487451 51.280606,22.0680263 49.6707154,19.9059013 C48.7888248,18.7215888 47.6517623,17.8010888 46.3166216,17.1690107 C47.3497779,17.1345576 48.243481,17.1799482 48.9582466,17.2525732 C50.8106216,17.4408076 51.9108248,17.8406826 51.9196841,17.8439638 C52.281606,17.9793701 52.6891373,17.8664951 52.9297623,17.5645107 C53.1704966,17.262417 53.1893091,16.8396826 52.976356,16.5173545 L52.976356,16.5173545 Z" id="Fill-1" fill="#616161" mask="url(#mask-2)"></path>
        </g>
    </g>
</svg>