<?xml version="1.0" encoding="UTF-8"?>
<svg width="64px" height="64px" viewBox="0 0 64 64" version="1.1" xmlns="http://www.w3.org/2000/svg" xmlns:xlink="http://www.w3.org/1999/xlink">
    <!-- Generator: Sketch 56.3 (81716) - https://sketch.com -->
    <title>cofe / pens</title>
    <desc>Created with Sketch.</desc>
    <g id="cofe-/-pens" stroke="none" stroke-width="1" fill="none" fill-rule="evenodd">
        <g id="chino-shorts" transform="translate(7.000000, 4.000000)" fill="#616161">
            <path d="M49.107,27.313 C48.182,5.47 47.0336,0.895 46.9852,0.7106 C46.893,0.3598 46.575,0.1146 46.2118,0.1146 L2.896,0.1146 C2.5328,0.1146 2.2148,0.3598 2.1226,0.7106 C2.0742,0.895 0.9258,5.47 0.0008,27.313 C0,27.324 0,55.1998 0,55.1998 C0,55.642 0.3578,55.9998 0.8,55.9998 L22.3414,55.9998 C22.7828,55.9998 23.1414,55.642 23.1414,55.1998 L23.1414,45.0622 C23.1562,44.7184 23.4304,38.8692 24.554,35.0458 C25.6766,38.8692 25.9508,44.7184 25.9656,45.0622 L25.9656,55.1998 C25.9656,55.642 26.3242,55.9998 26.7656,55.9998 L48.3078,55.9998 C48.7492,55.9998 49.1078,55.642 49.1078,55.1998 C49.1078,55.1998 49.107,27.324 49.107,27.313 Z M3.5524,1.7146 L14.2688,1.7146 L14.2688,5.224 L3.0766,5.224 C3.2804,3.4012 3.4484,2.309 3.5524,1.7146 Z M2.9078,6.824 L6.0102,6.824 C5.8618,15.0724 3.4242,17.874 2.0204,18.8052 C2.3282,13.374 2.6398,9.5176 2.9078,6.824 Z M1.6,54.3998 L21.5414,54.3998 L21.5414,51.8084 L1.6,51.8084 L1.6,54.3998 Z M23.754,32.631 C21.9094,36.4404 21.5414,45.0348 21.5414,45.0458 L21.5414,50.2084 L1.6,50.2084 L1.6,27.363 C1.704,24.9154 1.8102,22.688 1.918,20.6584 C3.5258,20.049 7.4242,17.4748 7.6102,6.824 L14.2688,6.824 L14.2688,7.5778 C14.2688,8.02 14.6274,8.3778 15.0688,8.3778 C15.511,8.3778 15.8688,8.02 15.8688,7.5778 L15.8688,6.824 L23.754,6.824 L23.754,32.631 Z M15.8688,5.224 L23.754,5.224 L23.754,1.7146 L15.8688,1.7146 L15.8688,5.224 Z M47.0882,18.8052 C45.6844,17.8732 43.2468,15.0716 43.0984,6.824 L46.2032,6.824 C46.4704,9.5122 46.7804,13.3646 47.0882,18.8052 Z M34.8382,1.7146 L45.557,1.7146 C45.6618,2.306 45.8296,3.395 46.0344,5.224 L34.8382,5.224 L34.8382,1.7146 Z M25.354,5.224 L33.2382,5.224 L33.2382,1.7146 L25.354,1.7146 L25.354,5.224 Z M25.354,6.824 L27.7774,6.824 L27.7774,19.9834 C27.7774,23.6256 26.307,24.781 25.354,25.1474 L25.354,6.824 Z M25.354,32.631 L25.354,26.8122 C25.9422,26.6748 26.7594,26.359 27.5086,25.6262 C28.7484,24.4138 29.3774,22.5146 29.3774,19.9834 L29.3774,6.824 L33.2382,6.824 L33.2382,7.5786 C33.2382,8.02 33.596,8.3786 34.0382,8.3786 C34.4804,8.3786 34.8382,8.02 34.8382,7.5786 L34.8382,6.824 L41.4976,6.824 C41.6844,17.4756 45.5828,20.0498 47.1898,20.6584 C47.2976,22.6872 47.404,24.9146 47.5078,27.363 L47.5078,50.2084 L27.5656,50.2084 C27.5656,50.2084 27.5656,45.024 27.5656,45.013 C27.5508,44.659 27.1984,36.4396 25.354,32.631 Z M27.5656,54.3998 L47.5078,54.3998 L47.5078,51.8084 L27.5656,51.8084 L27.5656,54.3998 Z" id="Fill-1"></path>
            <path d="M27.2562,4.27 C27.0468,4.27 26.8398,4.1834 26.6914,4.0348 C26.5422,3.8864 26.4578,3.6794 26.4578,3.4684 C26.4578,3.259 26.5422,3.0528 26.6914,2.9036 C26.8406,2.7552 27.0468,2.67 27.2562,2.67 C27.4672,2.67 27.6734,2.7552 27.8226,2.9036 C27.971,3.0528 28.0562,3.259 28.0562,3.4684 C28.0562,3.6794 27.971,3.8864 27.8226,4.0348 C27.6734,4.184 27.4672,4.27 27.2562,4.27 Z" id="Fill-2"></path>
        </g>
    </g>
</svg>