<svg width="52" height="52" viewBox="0 0 52 52" fill="none" xmlns="http://www.w3.org/2000/svg">
<path d="M26 19.5C26 15.9163 23.0837 13 19.5 13C15.9163 13 13 15.9163 13 19.5C13 23.0837 15.9163 26 19.5 26C23.0837 26 26 23.0837 26 19.5ZM17.3333 19.5C17.3333 18.304 18.3062 17.3333 19.5 17.3333C20.696 17.3333 21.6667 18.304 21.6667 19.5C21.6667 20.696 20.696 21.6667 19.5 21.6667C18.3062 21.6667 17.3333 20.696 17.3333 19.5Z" fill="#757575"/>
<path d="M32.5 26C28.9163 26 26 28.9163 26 32.5C26 36.0837 28.9163 39 32.5 39C36.0837 39 39 36.0837 39 32.5C39 28.9163 36.0837 26 32.5 26ZM32.5 34.6667C31.3062 34.6667 30.3333 33.696 30.3333 32.5C30.3333 31.304 31.3062 30.3333 32.5 30.3333C33.696 30.3333 34.6667 31.304 34.6667 32.5C34.6667 33.696 33.696 34.6667 32.5 34.6667Z" fill="#757575"/>
<path d="M36.1953 18.8618L33.1323 15.7997L15.8012 33.1357L18.8642 36.1979L36.1953 18.8618Z" fill="#757575"/>
<path d="M10.8333 10.8333H13V6.5H10.8333C8.4435 6.5 6.5 8.44567 6.5 10.8333V13H10.8333V10.8333Z" fill="#757575"/>
<path d="M23.8335 6.5H17.3335V10.8333H23.8335V6.5Z" fill="#757575"/>
<path d="M34.6665 6.5H28.1665V10.8333H34.6665V6.5Z" fill="#757575"/>
<path d="M41.1667 6.5H39V10.8333H41.1667V13H45.5V10.8333C45.5 8.44567 43.5587 6.5 41.1667 6.5Z" fill="#757575"/>
<path d="M10.8333 39H6.5V41.1667C6.5 43.5565 8.4435 45.5 10.8333 45.5H13V41.1667H10.8333V39Z" fill="#757575"/>
<path d="M23.8335 41.1667H17.3335V45.5H23.8335V41.1667Z" fill="#757575"/>
<path d="M34.6665 41.1667H28.1665V45.5H34.6665V41.1667Z" fill="#757575"/>
<path d="M41.1667 41.1667H39V45.5H41.1667C43.5587 45.5 45.5 43.5565 45.5 41.1667V39H41.1667V41.1667Z" fill="#757575"/>
<path d="M10.8333 28.1667H6.5V34.6667H10.8333V28.1667Z" fill="#757575"/>
<path d="M10.8333 17.3333H6.5V23.8333H10.8333V17.3333Z" fill="#757575"/>
<path d="M45.4998 28.1667H41.1665V34.6667H45.4998V28.1667Z" fill="#757575"/>
<path d="M45.4998 17.3333H41.1665V23.8333H45.4998V17.3333Z" fill="#757575"/>
</svg>
