<?xml version="1.0" encoding="UTF-8"?>
<svg width="64px" height="64px" viewBox="0 0 64 64" version="1.1" xmlns="http://www.w3.org/2000/svg" xmlns:xlink="http://www.w3.org/1999/xlink">
    <!-- Generator: Sketch 56.3 (81716) - https://sketch.com -->
    <title>cofe / ps</title>
    <desc>Created with Sketch.</desc>
    <defs>
        <polygon id="path-1" points="0 50 64 50 64 0 0 0"></polygon>
    </defs>
    <g id="cofe-/-ps" stroke="none" stroke-width="1" fill="none" fill-rule="evenodd">
        <g id="playstation-logo" transform="translate(0.000000, 5.000000)">
            <mask id="mask-2" fill="white">
                <use xlink:href="#path-1"></use>
            </mask>
            <g id="Clip-2"></g>
            <path d="M34.4586123,51 L24.6908352,46.79375 L24.6908352,1 C24.6908352,1 45.9196841,4.58214286 48.843173,13.4616071 C51.7666618,22.3375 47.2112102,28.0892857 45.6103579,28.2598214 C41.1526818,28.7276786 39.4584982,25.9232143 39.4584982,25.9232143 L39.4584982,11.5919643 L34.6141643,9.56607143 L34.4586123,51 Z M36.9998877,44.6910714 L36.9998877,50.0651786 C36.9998877,50.0651786 59.9958074,42.5875 63.381508,39.7071429 C66.7627641,36.8258929 55.4581332,29.6625 49.3818274,31.0607143 C49.3818274,31.0607143 42.9268635,31.3776786 37.0763304,33.9419643 C37.0203316,33.9660714 37.0763304,38.7723214 37.0763304,38.7723214 L51.9195472,35.2669643 L57.1487613,37.6035714 L36.9998877,44.6910714 Z M22.229558,44.3035714 C22.229558,44.3035714 19.2296264,45.8589286 12.5382235,45.7821429 C5.84770952,45.7017857 -0.0757108894,43.8330357 0.000731810914,39.7839286 C0.0771745113,35.7339286 11.0769235,31.2946429 22.1531153,29.425 L22.1531153,35.1098214 L10.3862726,38.2276786 C10.3862726,38.2276786 8.37209637,40.7982143 11.0769235,40.875 C17.2332275,41.0464286 22.3095562,39.3928571 22.3095562,39.3928571 L22.229558,44.3035714 Z" id="Fill-1" fill="#616161" mask="url(#mask-2)"></path>
        </g>
    </g>
</svg>