<?xml version="1.0" encoding="UTF-8"?>
<svg width="50px" height="28px" viewBox="0 0 50 28" version="1.1" xmlns="http://www.w3.org/2000/svg" xmlns:xlink="http://www.w3.org/1999/xlink">
    <!-- Generator: Sketch 48.1 (47250) - http://www.bohemiancoding.com/sketch -->
    <title>taxi</title>
    <desc>Created with Sketch.</desc>
    <defs></defs>
    <g id="Главная-HR-Usetech(var.0.3_13_11_2017)-Copy" stroke="none" stroke-width="1" fill="none" fill-rule="evenodd" transform="translate(-1328.000000, -2391.000000)">
        <g id="taxi" transform="translate(1328.000000, 2391.000000)" fill="#616161" fill-rule="nonzero">
            <path d="M11.459082,20.8729492 C10.8823242,20.8729492 10.4154297,21.3398438 10.4154297,21.9135742 C10.4154297,22.490332 10.8823242,22.9557617 11.459082,22.9557617 C12.0328125,22.9557617 12.499707,22.490332 12.499707,21.9135742 C12.499707,21.3398438 12.0328125,20.8729492 11.459082,20.8729492 Z" id="Shape"></path>
            <path d="M16.6713867,14.6071289 C16.0976563,14.6071289 15.6307617,15.0740234 15.6307617,15.6485352 C15.6307617,16.225293 16.0976563,16.690625 16.6713867,16.690625 C17.2481445,16.690625 17.7135742,16.225293 17.7135742,15.6485352 C17.7135742,15.0740234 17.2481445,14.6071289 16.6713867,14.6071289 Z" id="Shape"></path>
            <path d="M18.7556641,16.690625 C18.1804687,16.690625 17.7135742,17.1560547 17.7135742,17.7328125 C17.7135742,18.306543 18.1804687,18.7734375 18.7556641,18.7734375 C19.330957,18.7734375 19.7962891,18.306543 19.7962891,17.7328125 C19.7963867,17.1560547 19.330957,16.690625 18.7556641,16.690625 Z" id="Shape"></path>
            <path d="M20.8384766,14.6071289 C20.2632813,14.6071289 19.7963867,15.0740234 19.7963867,15.6485352 C19.7963867,16.225293 20.2632813,16.690625 20.8384766,16.690625 C21.4137695,16.690625 21.8806641,16.225293 21.8806641,15.6485352 C21.8806641,15.0740234 21.4137695,14.6071289 20.8384766,14.6071289 Z" id="Shape"></path>
            <path d="M22.9212891,16.690625 C22.3475586,16.690625 21.8806641,17.1560547 21.8806641,17.7328125 C21.8806641,18.306543 22.3475586,18.7734375 22.9212891,18.7734375 C23.4980469,18.7734375 23.9633789,18.306543 23.9633789,17.7328125 C23.9634766,17.1560547 23.4980469,16.690625 22.9212891,16.690625 Z" id="Shape"></path>
            <path d="M25.0055664,14.6071289 C24.4302734,14.6071289 23.9633789,15.0740234 23.9633789,15.6485352 C23.9633789,16.225293 24.4302734,16.690625 25.0055664,16.690625 C25.5808594,16.690625 26.0461914,16.225293 26.0461914,15.6485352 C26.0462891,15.0740234 25.5808594,14.6071289 25.0055664,14.6071289 Z" id="Shape"></path>
            <path d="M27.0884766,16.690625 C26.5131836,16.690625 26.0462891,17.1560547 26.0462891,17.7328125 C26.0462891,18.306543 26.5131836,18.7734375 27.0884766,18.7734375 C27.6637695,18.7734375 28.1305664,18.306543 28.1305664,17.7328125 C28.1305664,17.1560547 27.6636719,16.690625 27.0884766,16.690625 Z" id="Shape"></path>
            <path d="M29.1711914,14.6071289 C28.5974609,14.6071289 28.1305664,15.0740234 28.1305664,15.6485352 C28.1305664,16.225293 28.5974609,16.690625 29.1711914,16.690625 C29.7479492,16.690625 30.2133789,16.225293 30.2133789,15.6485352 C30.2133789,15.0740234 29.7479492,14.6071289 29.1711914,14.6071289 Z" id="Shape"></path>
            <path d="M31.2554687,16.690625 C30.6801758,16.690625 30.2133789,17.1560547 30.2133789,17.7328125 C30.2133789,18.306543 30.6801758,18.7734375 31.2554687,18.7734375 C31.8307617,18.7734375 32.2960937,18.306543 32.2960937,17.7328125 C32.2960937,17.1560547 31.8306641,16.690625 31.2554687,16.690625 Z" id="Shape"></path>
            <path d="M33.3382813,14.6071289 C32.7629883,14.6071289 32.2960937,15.0740234 32.2960937,15.6485352 C32.2960937,16.225293 32.7629883,16.690625 33.3382813,16.690625 C33.9135742,16.690625 34.3804688,16.225293 34.3804688,15.6485352 C34.3804687,15.0740234 33.9134766,14.6071289 33.3382813,14.6071289 Z" id="Shape"></path>
            <path d="M48.0993164,12.1420898 C46.2943359,10.4888672 43.1662109,10.4385742 37.0430664,10.4370117 C36.559375,9.70380859 35.5370117,8.35419922 33.8448242,7.01367187 C32.3585937,5.83730469 30.1355469,4.51054687 27.0883789,3.75527344 L27.0883789,1.06601563 C27.0883789,0.490722656 26.6229492,0.024609375 26.0461914,0.024609375 L17.6998047,0.024609375 C17.1245117,0.024609375 16.6591797,0.490722656 16.6591797,1.06601563 L16.6591797,3.75527344 C13.6105469,4.50986328 11.3842773,5.83505859 9.89511719,7.01142578 C8.19833984,8.35117188 7.17148437,9.70078125 6.68623047,10.4324219 L5.4625,10.4324219 C5.38007812,10.4125977 5.03525391,10.4125977 4.95439453,10.4324219 L3.12490234,10.4324219 C2.84873047,10.4324219 2.58476562,10.5422852 2.38945313,10.7375977 L0.305175781,12.8210938 C0.109863281,13.0164063 0,13.2811523 0,13.5573242 L0,20.8729492 C0,21.1628906 0.122070312,21.4405273 0.334179687,21.6374023 C0.592089844,21.8769531 2.9265625,23.9735352 5.18789062,23.9735352 L6.67558594,23.9735352 C7.47666016,25.8244141 9.31679687,27.1228516 11.459082,27.1228516 C13.5983398,27.1228516 15.4416016,25.8244141 16.2411133,23.9735352 L33.7579102,23.9735352 C34.5575195,25.8244141 36.4006836,27.1228516 38.5399414,27.1228516 C40.6822266,27.1228516 42.5239258,25.8244141 43.3234375,23.9735352 L48.9583984,23.9735352 C49.5321289,23.9735352 49.9990234,23.5066406 49.9990234,22.9329102 C49.9990234,16.9087891 49.9990234,13.8838867 48.0993164,12.1420898 Z M32.4700195,8.58378906 C33.2970703,9.22851562 33.9410156,9.87773437 34.421582,10.4324219 L20.8338867,10.4324219 L20.8338867,5.24990234 C21.1726562,5.23388672 21.519043,5.22470703 21.8745117,5.22470703 C26.0493164,5.22470703 29.6136719,6.35458984 32.4700195,8.58378906 Z M18.7419922,2.10732422 L25.0056641,2.10732422 L25.0056641,3.35400391 C24.0321289,3.21816406 22.9884766,3.14111328 21.8746094,3.14111328 C20.7607422,3.14111328 19.7170898,3.21816406 18.7419922,3.35400391 L18.7419922,2.10732422 Z M18.7496094,5.45742187 L18.7496094,10.4324219 L9.30761719,10.4324219 C10.7618164,8.76542969 13.7264648,6.23105469 18.7496094,5.45742187 Z M3.55673828,12.515918 L4.16552734,12.515918 L4.16552734,13.5573242 L2.51455078,13.5573242 L3.55673828,12.515918 Z M11.459082,25.0385742 C9.73486328,25.0385742 8.33417969,23.637793 8.33417969,21.9135742 C8.33417969,20.1908203 9.73486328,18.7886719 11.459082,18.7886719 C13.1802734,18.7886719 14.584082,20.1908203 14.584082,21.9135742 C14.584082,23.6378906 13.1802734,25.0385742 11.459082,25.0385742 Z M38.5398438,25.0385742 C36.81875,25.0385742 35.4149414,23.637793 35.4149414,21.9135742 C35.4149414,20.1908203 36.81875,18.7886719 38.5398438,18.7886719 C40.2639648,18.7886719 41.6647461,20.1908203 41.6647461,21.9135742 C41.6647461,23.6378906 40.2640625,25.0385742 38.5398438,25.0385742 Z M43.7491211,21.8907227 C43.7369141,19.0297852 41.4053711,16.7058594 38.5398437,16.7058594 C35.6773437,16.7058594 33.3458008,19.0297852 33.3335937,21.8907227 L16.665332,21.8907227 C16.653125,19.0297852 14.321582,16.7058594 11.459082,16.7058594 C8.59355469,16.7058594 6.26201172,19.0297852 6.24980469,21.8907227 L5.20927734,21.8907227 C5.20625,21.8907227 5.20322266,21.8907227 5.20009766,21.8907227 L5.18789062,21.8907227 C4.1625,21.8907227 2.7953125,20.9645508 2.08427734,20.3922852 L2.08427734,15.640918 L5.20927734,15.640918 C5.78300781,15.640918 6.24990234,15.1754883 6.24990234,14.5995117 L6.24990234,12.515918 L7.26923828,12.515918 L36.3733398,12.515918 C36.4007813,12.5181641 36.4313477,12.5197266 36.4603516,12.5197266 C42.0341797,12.5197266 45.1958008,12.5205078 46.5477539,13.5573242 L44.7777344,13.5573242 C44.2009766,13.5573242 43.7355469,14.0242188 43.7355469,14.5995117 C43.7355469,15.1754883 44.2009766,15.640918 44.7777344,15.640918 L47.6004883,15.640918 C47.88125,17.0522461 47.9118164,19.0999023 47.9148438,21.8907227 L43.7491211,21.8907227 Z" id="Shape"></path>
            <path d="M38.5398438,20.8729492 C37.9661133,20.8729492 37.4993164,21.3398438 37.4993164,21.9135742 C37.4993164,22.490332 37.9661133,22.9557617 38.5398438,22.9557617 C39.1166016,22.9557617 39.5835937,22.490332 39.5835937,21.9135742 C39.5835937,21.3398438 39.1166992,20.8729492 38.5398438,20.8729492 Z" id="Shape"></path>
        </g>
    </g>
</svg>