<?xml version="1.0" encoding="UTF-8"?>
<svg width="154px" height="145px" viewBox="0 0 154 145" version="1.1" xmlns="http://www.w3.org/2000/svg" xmlns:xlink="http://www.w3.org/1999/xlink">
    <!-- Generator: Sketch 57.1 (83088) - https://sketch.com -->
    <title>cat</title>
    <desc>Created with Sketch.</desc>
    <g id="Page-1" stroke="none" stroke-width="1" fill="none" fill-rule="evenodd">
        <g id="RK-180" transform="translate(-1558.000000, -689.000000)">
            <g id="cat" transform="translate(1635.000000, 761.500000) scale(-1, 1) translate(-1635.000000, -761.500000) translate(1558.000000, 689.000000)">
                <path d="M149,134.5 C149,140.297383 119.227122,145 82.5002639,145 C45.7731415,145 16,140.297383 16,134.5 C16,128.702617 45.7731415,124 82.5002639,124 C119.227122,124 149,128.702617 149,134.5" id="Fill-17-Copy" fill-opacity="0.247459572" fill="#000000"></path>
                <path d="M28.8403327,17.0640558 C28.8403327,17.0640558 18.0436277,32.707444 20.3136299,41.3745534 C22.5836322,50.0422203 38.6155924,59.5617134 38.6155924,59.5617134 L45.5675438,95.6517197 C45.5675438,95.6517197 47.4117119,140.550992 50.249493,140.98025 C53.0867174,141.403934 55.9244985,134.870292 55.9244985,134.870292 C55.9244985,134.870292 62.4506158,134.585978 62.0247816,134.870292 C61.5995041,135.154606 59.0456124,136.854914 60.1806135,138.276482 C61.3156146,139.698051 100.047597,138.276482 102.175655,136.43123 C104.303712,134.585978 116.563839,121.396051 114.833227,103.027153 C112.317187,76.3183851 64.093278,-0.147517889 61.8811669,0 C59.6696125,0.147945415 56.5729911,10.6324329 56.5729911,10.6324329 C56.5729911,10.6324329 41.2385082,11.9614603 38.2899545,12.699561 C38.2899545,12.699561 31.9497571,2.51053689 30.6227131,3.10146349 C29.2956691,3.69183262 28.8403327,17.0640558 28.8403327,17.0640558" id="Fill-39" fill="#383835"></path>
                <path d="M45.9297181,96.0492306 C41.1578207,95.5581023 36.4909475,98.8006655 34.450238,103.137105 C32.4095284,107.473545 32.6854962,112.630393 34.2664456,117.156587 C35.847395,121.682781 38.6277431,125.678779 41.5376955,129.490605 C38.5523268,129.23946 35.2988111,132.191811 34.1150543,134.943246 C39.3215731,134.920921 44.0828564,135.149743 48.9871513,134.820463 L49,96.3171188 C48.0743346,96.3506048 46.851473,96.1496887 45.9297181,96.0492306" id="Fill-40" fill="#383835"></path>
                <path d="M40.1157504,58.5515594 C35.2225332,61.6075755 30.9539937,65.6384634 27.6414924,70.3323515 C25.3743477,66.3685269 22.7030646,61.9325328 20.027922,57.7342591 C19.0564461,56.2092498 17.1449212,55.3941305 15.348628,55.087711 C11.8117279,54.4835958 8.61390706,57.1083347 6.09645017,59.6382035 C4.94854276,60.7913657 3.7317168,62.2433141 4.05205023,63.8304796 C4.37899985,65.450359 6.26957358,66.3701626 7.93299176,66.2202242 C9.59640994,66.0697407 11.0685102,65.1390325 12.4661785,64.2344953 C13.7447555,70.6878417 15.6816425,77.0152399 18.2376937,83.0836536 C19.016749,84.9319845 20.0163437,86.9220753 21.8909284,87.6853977 C24.2611752,88.6450032 26.8822856,87.2328566 29.0099392,85.82071 C34.2168736,82.3694019 39.22422,78.6182171 44,74.6053217 C42.2472634,69.3760175 40.9460811,63.9989558 40.1157504,58.5515594" id="Fill-41" fill="#383835"></path>
                <path d="M99.9263217,135.875264 C105.82484,136.673887 115.888636,133.606952 121.402115,127.556272 C135.654202,111.922113 131.450195,86.3384403 130.820436,70.8046641 C130.492086,62.7058482 129.064744,53.0275331 135.43923,46.8298842 C136.668439,45.6352769 138.428621,44.6663917 140.065882,45.2015802 C143.213555,46.2309168 142.88296,50.8823424 142.443475,53.3691664 C141.611655,58.0710606 144.030782,63.6392391 149.169885,59.4143005 C152.25694,56.8764533 154.085598,52.9088488 153.996915,48.9417989 C153.908233,44.974749 151.903893,41.090889 148.706827,38.6900279 C142.45863,33.9986711 132.868556,35.8177573 127.275937,41.2567142 C121.683317,46.6962257 119.520696,54.7894956 119.330982,62.5411322 C119.140707,70.2927688 120.674131,77.9750805 121.353283,85.695105 C122.149182,94.7517141 121.713627,104.146629 118.049013,112.482259 C114.384399,120.817889 107.043385,127.950038 98,129.60829 L99.9263217,135.875264" id="Fill-42" fill="#383835"></path>
                <path d="M47.1913915,119.825241 C46.7167484,114.646029 46.4352817,109.455643 46.2952122,104.265257 C46.0144093,93.867724 47.0088365,83.54841 47.2398516,73.1732253 C47.2444985,72.9441555 46.8130047,72.9441555 46.7718468,73.1620512 C44.8593337,83.1126187 44.9097853,93.4878034 45.0717614,103.550112 C45.154741,108.746085 45.4362077,113.936471 45.8643823,119.115683 C46.3111443,124.523965 46.6842204,129.272972 47.9050158,134.603035 C48.0377832,135.18409 49.0461509,135.105871 48.9983546,134.508054 C48.5920867,129.33443 47.664707,124.998865 47.1913915,119.825241" id="Fill-43" fill="#565656"></path>
                <path d="M76.8622149,91.6887373 C76.9954999,91.5780181 77.05593,91.3731874 76.9339403,91.2292523 C76.791619,91.0576374 76.6498624,90.8915585 76.5075411,90.7254796 C76.4053182,90.6036884 76.1370538,90.659048 76.1822352,90.8472708 C76.3607016,91.583554 74.2665449,92.6962828 73.7785861,93.0893363 C72.888513,93.8090116 72.056611,94.5951185 71.2360042,95.3867614 C69.3338684,97.2247015 67.6903959,99.31176 66.2174831,101.487394 C65.0405083,103.225687 63.9267874,105.130058 62.991533,107.117469 C63.0728595,106.735488 63.1558802,106.34797 63.2377715,105.965989 C64.3176063,100.867366 65.3398349,95.757671 66.3394728,90.6479761 C67.3328983,85.565961 68.5482772,80.4064424 69.0079977,75.2524598 C69.033977,74.9590537 68.6375105,74.903694 68.5595726,75.1804922 C67.209779,79.9137416 66.4721931,84.8573576 65.5036174,89.6791823 C64.4768707,94.7888773 63.4252742,99.8875003 62.341486,104.986123 C60.1744743,115.183369 58.2678203,123.919121 56.012705,134.094223 C55.881679,134.686571 56.8039438,134.819434 56.949089,134.24923 C58.5773127,127.777688 59.6204377,122.684601 61.0430862,116.163235 C62.6673566,121.638303 66.6534834,126.509952 71.2314861,129.925642 C67.9767329,130.77818 64.7490884,132.211995 62.343745,134.5371 C62.0845169,134.786218 62.4838073,135.118376 62.7543308,134.957833 C65.9102498,133.086677 68.8803603,131.475712 72.5163314,130.689605 C72.9280467,130.601029 73.2211609,130.052969 72.7975855,129.754027 C67.2894112,125.928676 64.0052901,120.879876 61.3955009,114.978539 C61.6389156,110.566375 64.3605286,106.187427 67.0239706,102.129566 C69.6738582,98.0883119 73.1200675,94.7501255 76.8622149,91.6887373" id="Fill-44" fill="#565656"></path>
                <path d="M37.6907266,65.1568394 C37.5233444,64.8909514 36.9761661,64.9842561 37.0008061,65.2781966 C37.1554434,67.146121 37.8394163,69.0030684 38.3526084,70.8356224 C38.8097232,72.4651014 39.1155993,74.1238525 39.7978729,75.7155217 C40.0145351,76.2216847 41.0307234,75.9899474 40.9992861,75.5081778 C40.7868722,72.2272658 39.5905569,68.1627159 37.6907266,65.1568394" id="Fill-46" fill="#565656"></path>
                <path d="M33,44.5840779 C30.7857857,45.4767919 28.0429527,44.8967308 26.3950365,43.1867107 C26.1528915,42.9355443 25.919058,42.5973687 26.027109,42.267894 C26.0753164,42.1211385 26.1850297,42.0028061 26.2919725,41.8902742 C27.1519476,40.9818985 28.0119227,40.074103 28.8718978,39.1657273 C28.9428236,39.0903194 29.0237233,39.0102709 29.1278956,39.0009899 C29.2913573,38.9859084 29.4093823,39.1460052 29.4913902,39.28638 C30.3918152,40.833983 32.099575,43.0364749 33,44.5840779" id="Fill-47" fill="#0B0C0A"></path>
                <path d="M14.6869519,58.0893554 C14.3407543,58.7671424 13.7396494,59.3896172 13.1989637,59.9286983 C12.5784542,60.5477692 11.8097632,60.9187864 11.1279524,61.4527617 C10.8351177,61.6820945 11.090907,62.0773639 11.4331355,61.986737 C13.2364501,61.5097758 14.3098832,59.7423388 14.9850787,58.2191263 C15.0684308,58.0310649 14.7795652,57.9068252 14.6869519,58.0893554" id="Fill-49" fill="#565656"></path>
                <path d="M26.4859361,71.1915413 C26.2025428,72.3806756 26.1293558,73.5898712 26.0011409,74.7985652 C25.9769287,75.0242549 26.3456152,75.0844389 26.3918385,74.8537338 C26.6284582,73.6600857 26.9173543,72.4829883 26.9993458,71.2692789 C27.0197061,70.9678577 26.5585729,70.8886155 26.4859361,71.1915413" id="Fill-52" fill="#565656"></path>
                <path d="M21.0249552,50.7709274 C21.1006919,51.2329263 21.3863977,51.6882295 21.8525169,51.8885406 C22.3266409,52.0921995 22.9048257,51.9973447 23.3604773,51.7607656 C23.8167446,51.5247444 24.1751083,51.1637381 24.5254674,50.8094273 C27.016773,48.2874046 29.0086944,46.0220228 31.5,43.5 C30.9292041,42.8349002 30.3879196,42.2660923 30,41.5 C29.8195866,41.1434574 29.6724087,40.3526368 29.5,40 C29.4328838,39.8638554 29.3873926,39.0903911 29.4360364,39 C28.7981243,40.1661565 28.0857069,41.4037332 26.8191188,42.0169418 C26.499547,42.1720574 26.1479564,42.2847672 25.8757969,42.5023754 C25.4780255,42.8193022 25.2415792,43.30083 24.8998406,43.6663001 C24.5470185,44.0434875 24.1960437,44.4139794 23.8721616,44.8134856 C22.7391902,46.2123155 21.7219789,47.7199495 21.1967482,49.3888366 C21.0551267,49.8380022 20.9498343,50.3083706 21.0249552,50.7709274 Z" id="Fill-53" fill="#D46A69"></path>
                <path d="M31.7324887,15.0262183 C30.2387589,15.8870416 28.8986481,17.0502382 28.0375232,18.5760898 C27.8638669,18.8832856 28.3376049,19.1576881 28.547042,18.8938951 C29.5823002,17.5913272 30.6237605,16.3398781 31.9309529,15.2996563 C32.1050862,15.1612494 31.9166406,14.9201224 31.7324887,15.0262183" id="Fill-54" fill="#696662"></path>
                <path d="M40.9650959,40.177836 C40.3892528,38.589851 39.1309089,39.7774642 38.4408668,40.6028642 C37.1916804,42.0957463 35.9818172,43.5046794 34.0819119,43.9203147 C31.211315,44.5484641 30.0951812,40.801876 29.8086063,38.5223396 C29.7606643,38.1419277 29.2871693,37.8114154 28.9838955,38.124903 C28.5055525,38.6197908 28.1624168,39.0841517 27.8074302,39.6993858 C27.3915734,40.4355534 27.1491698,41.1881585 26.3880226,41.5891174 C26.0114891,41.7875422 25.5347621,41.8251137 25.1910877,41.5650481 C24.5387527,41.0707474 24.7213634,40.0974094 24.7046645,39.3653513 C24.6949684,38.939149 24.2349403,38.8252602 23.9564455,39.0054863 C23.6343181,39.17221 23.3509752,39.3970523 23.1053396,39.6794259 C22.9076461,39.8696319 22.9943727,40.3404504 23.3138067,40.2658944 C23.5071909,40.2206911 23.6402435,40.1889901 23.7582132,40.1549409 C23.786763,41.2122278 24.0237798,42.430955 25.0149411,42.7462038 C27.1292389,43.4189693 27.9297093,41.3689716 28.9806635,39.8250157 C29.4525424,42.0587618 30.5228888,44.653547 32.7810128,44.9476618 C33.9919533,45.1055797 35.1948136,44.9212443 36.2463065,44.187425 C36.8318457,43.7782473 37.3764458,43.3479356 37.8720264,42.8113669 C38.2636428,42.3875129 39.8182577,41.0648769 39.9281473,40.5658797 C39.8166417,41.0719215 40.4199572,41.2503864 40.6962973,40.9427693 C40.7598609,40.8717356 40.8234245,40.8007019 40.8869881,40.7296682 C41.0098059,40.5922972 41.0270435,40.3486692 40.9650959,40.177836" id="Fill-56" fill="#565656"></path>
                <path d="M33.9973482,36.2032976 C34.0432992,36.7627314 33.4836397,37.1841015 32.9728768,37.4762441 C32.1180705,37.9649893 31.22615,38.398509 30.3071302,38.7723852 C29.9082992,38.9347481 29.4558587,39.086618 29.0493691,38.9419274 C28.7200537,38.8248494 28.4997246,38.5393339 28.302371,38.2665202 C27.9606841,37.7937904 27.6290122,37.3149858 27.3079444,36.8295541 C27.116482,36.5401728 26.9214848,36.1999841 27.0322385,35.8752585 C27.1612547,35.4969642 27.6325469,35.3395717 28.046695,35.2550768 C29.4752995,34.9640387 30.9610481,34.9215151 32.4061479,35.1302673 C32.7554932,35.1810747 33.1107297,35.249002 33.4153023,35.4174396 C33.720464,35.5858772 33.9702489,35.8730495 33.9973482,36.2032976" id="Fill-57" fill="#FFFFFF"></path>
                <path d="M22.8331193,35.3876247 C15.7501386,31.8632311 7.64696654,31.0466253 0.119813531,33.1362462 C-0.0898444283,33.1945752 -0.00176647132,33.5914528 0.21005291,33.5475557 C7.85230166,31.9678625 15.3762125,32.7550031 22.5948225,35.9739212 C22.9401097,36.1278616 23.174624,35.5571997 22.8331193,35.3876247" id="Fill-60" fill="#FFFFFF"></path>
                <path d="M21.8267323,36.4356049 C16.5271486,35.2031927 11.0706002,36.6998632 6.11029777,39.4900508 C5.89507803,39.6114668 6.02507291,40.1010987 6.24137144,39.9812699 C11.3084746,37.1752109 16.4014689,36.6514555 21.75715,37.0530013 C22.0246913,37.0736341 22.1039828,36.4998839 21.8267323,36.4356049" id="Fill-61" fill="#FFFFFF"></path>
                <path d="M22.7602882,37.0185092 C21.539809,37.7574117 20.3290289,38.5536168 19.1160935,39.3357476 C18.8903183,39.4815174 19.0255678,40.1229049 19.251343,39.9791456 C20.465895,39.2070679 21.6826023,38.447054 22.8890716,37.6327533 C23.1046088,37.4869834 22.9758254,36.887819 22.7602882,37.0185092" id="Fill-62" fill="#FFFFFF"></path>
                <path d="M66.8928064,40.7249274 C57.9177708,37.8700765 46.9464395,36.6235577 37.2127009,37.0986167 C36.9422885,37.1116992 36.9212749,37.4493918 37.1983231,37.4563418 C42.1133026,37.5732669 46.9398036,37.7163569 51.8088848,38.2756346 C56.9262588,38.8639391 61.8130358,39.9542853 66.7822083,40.9947544 C66.9951097,41.0393167 67.0885651,40.7870694 66.8928064,40.7249274" id="Fill-63" fill="#FFFFFF"></path>
                <path d="M54.8957601,44.6515535 C50.1046087,42.0949571 44.6677105,40.1230862 39.2861142,39.0051668 C39.0157496,38.9489028 38.8760984,39.3690427 39.1442286,39.4458142 C44.528618,40.9865027 49.6158297,42.7874782 54.737675,44.9812503 C54.9672614,45.0795809 55.1074712,44.7646074 54.8957601,44.6515535" id="Fill-64" fill="#FFFFFF"></path>
            </g>
        </g>
    </g>
</svg>