<?xml version="1.0" encoding="UTF-8"?>
<svg width="265px" height="87px" viewBox="0 0 265 87" version="1.1" xmlns="http://www.w3.org/2000/svg" xmlns:xlink="http://www.w3.org/1999/xlink">
    <!-- Generator: Sketch 56.3 (81716) - https://sketch.com -->
    <title>Group 18</title>
    <desc>Created with Sketch.</desc>
    <g id="java" stroke="none" stroke-width="1" fill="none" fill-rule="evenodd">
        <g id="java-home-2" transform="translate(-386.000000, -869.000000)">
            <g id="Group-18" transform="translate(386.000000, 869.000000)">
                <text id="JAVA" font-family="MullerBold, Muller" font-size="27" font-weight="bold" fill="#92B700">
                    <tspan x="196.015" y="86">JAVA</tspan>
                </text>
                <g id="Group-4">
                    <g id="Page-1">
                        <polygon id="Fill-1" fill="#A4C815" points="0 0 0 65 118.026344 65 125 33.3058917 118.026344 0"></polygon>
                        <polygon id="Fill-2" fill="#92B700" points="0 33.0101257 0 65 118.026344 65 125 33"></polygon>
                        <g id="Group-17" transform="translate(7.000000, 10.000000)">
                            <path d="M36.0886255,25.4621429 C36.0886255,38.415 30.0495673,44.8914286 17.9721657,44.8914286 C6.2563928,44.8914286 0.39814903,38.5657143 0.39814903,25.9128571 L0.39814903,1.01 L10.1485479,1.01 L10.1485479,26.0335714 C10.1485479,33.0107143 12.876487,36.5 18.3337945,36.5 C23.6903319,36.5 26.3682432,33.1314286 26.3682432,26.3942857 L26.3682432,1.01 L36.0886255,1.01 L36.0886255,25.4621429 Z" id="Fill-3" fill="#FFFFFF"></path>
                            <path d="M40.4035861,42.4843571 L40.4035861,32.8565 C42.1495529,34.3200714 44.0463175,35.4179286 46.0938798,36.1507857 C48.1407274,36.8829286 50.2083008,37.2486429 52.2951706,37.2486429 C53.5201346,37.2486429 54.5885834,37.1386429 55.5012316,36.9179286 C56.4145945,36.6972143 57.1771596,36.3915 57.7896416,36.0000714 C58.4021235,35.6093571 58.8580903,35.1479286 59.1596859,34.6157857 C59.4605668,34.0843571 59.6106499,33.5079286 59.6106499,32.8857857 C59.6106499,32.0436429 59.3705169,31.2915 58.8881069,30.6293571 C58.4064116,29.9679286 57.7496194,29.3557857 56.9163008,28.7936429 C56.083697,28.2322143 55.0952925,27.6907857 53.9510875,27.1693571 C52.8068825,26.6472143 51.5726277,26.1157857 50.248323,25.5743571 C46.876456,24.1700714 44.3629213,22.4550714 42.7070044,20.4293571 C41.0510875,18.4029286 40.2234864,15.9557857 40.2234864,13.0879286 C40.2234864,10.8407857 40.6744504,8.91007143 41.5778078,7.29507143 C42.4811651,5.68078571 43.7104172,4.3515 45.265564,3.30864286 C46.8207108,2.26578571 48.6224227,1.49864286 50.669985,1.00721429 C52.7168327,0.515785714 54.8844615,0.269357143 57.1721568,0.269357143 C59.4205446,0.269357143 61.4123618,0.405071429 63.148323,0.6765 C64.8842842,0.947214286 66.4851706,1.36364286 67.9502676,1.92507143 L67.9502676,10.9215 C67.2277247,10.4193571 66.4401457,9.97864286 65.5868161,9.59721429 C64.7334864,9.2165 63.8558576,8.90007143 62.9525003,8.64935714 C62.0498576,8.39864286 61.151503,8.21364286 60.2581512,8.09292857 C59.3647994,7.97292857 58.5171873,7.91292857 57.7146,7.91292857 C56.6104172,7.91292857 55.6070044,8.01792857 54.7036471,8.22864286 C53.8010044,8.43935714 53.0377247,8.73507143 52.4159518,9.11578571 C51.7934643,9.4965 51.311769,9.95364286 50.9708659,10.4850714 C50.6299629,11.0165 50.459154,11.6129286 50.459154,12.2750714 C50.459154,12.9979286 50.6492593,13.6443571 51.0308992,14.2157857 C51.4125391,14.7879286 51.9542676,15.3286429 52.6567994,15.8407857 C53.3586166,16.3522143 54.2119463,16.8536429 55.215359,17.3457857 C56.2187717,17.8365 57.3529712,18.3429286 58.6172427,18.8650714 C60.3431983,19.5865 61.8940571,20.3543571 63.2691042,21.1665 C64.6434366,21.9786429 65.8226609,22.8965 66.8060626,23.9200714 C67.7894643,24.9422143 68.5420238,26.1107857 69.064456,27.4250714 C69.5861734,28.7386429 69.8470321,30.2679286 69.8470321,32.0136429 C69.8470321,34.4207857 69.3903507,36.4415 68.4769878,38.0765 C67.5636249,39.7107857 66.3243673,41.0350714 64.759215,42.0479286 C63.1933479,43.0615 61.3723396,43.7879286 59.2947607,44.2293571 C57.2171817,44.6707857 55.0245391,44.8915 52.7168327,44.8915 C50.3483784,44.8915 48.0957025,44.6907857 45.9580903,44.2893571 C43.8204781,43.8886429 41.9694532,43.2865 40.4035861,42.4843571" id="Fill-5" fill="#FFFFFF"></path>
                            <polygon id="Fill-7" fill="#FFFFFF" points="99.7458731 44.1326429 73.8701169 44.1326429 73.8701169 1.00978571 98.7531806 1.00978571 98.7531806 8.91835714 83.5883551 8.91835714 83.5883551 18.5112143 97.6997402 18.5112143 97.6997402 26.3897857 83.5883551 26.3897857 83.5883551 36.2540714 99.7458731 36.2540714"></polygon>
                            <polygon id="Fill-9" fill="#333333" points="152.342353 8.8885 140.031966 8.8885 140.031966 44.1135 130.280137 44.1135 130.280137 8.8885 118.030498 8.8885 118.030498 0.977071429 152.342353 0.977071429"></polygon>
                            <polygon id="Fill-11" fill="#333333" points="180.944905 44.1089286 155.063432 44.1089286 155.063432 0.976785714 179.951498 0.976785714 179.951498 8.8875 164.784529 8.8875 164.784529 18.4825 178.898772 18.4825 178.898772 26.3625 164.784529 26.3625 164.784529 36.2289286 180.944905 36.2289286"></polygon>
                            <path d="M215.722876,42.6036429 C212.573275,44.1279286 208.460284,44.8893571 203.383901,44.8893571 C196.763093,44.8893571 191.557353,42.9450714 187.765253,39.0543571 C183.973153,35.1643571 182.077104,29.9807857 182.077104,23.5043571 C182.077104,16.6065 184.208284,11.0115 188.472073,6.7215 C192.735863,2.43007143 198.267497,0.284357143 205.06912,0.284357143 C209.282167,0.284357143 212.833419,0.815785714 215.722876,1.87792857 L215.722876,11.2329286 C212.833419,9.50792857 209.543741,8.64578571 205.850982,8.64578571 C201.799453,8.64578571 198.528356,9.91935714 196.041264,12.4657857 C193.552743,15.0122143 192.309198,18.4615 192.309198,22.8129286 C192.309198,26.9836429 193.482705,30.3072143 195.830433,32.7836429 C198.177447,35.2600714 201.337768,36.4979286 205.309968,36.4979286 C209.101353,36.4979286 212.573275,35.5757857 215.722876,33.7307857 L215.722876,42.6036429 Z" id="Fill-13" fill="#333333"></path>
                            <polygon id="Fill-15" fill="#333333" points="257.511444 44.1089286 247.76033 44.1089286 247.76033 26.5432143 229.884718 26.5432143 229.884718 44.1089286 220.163621 44.1089286 220.163621 0.976785714 229.884718 0.976785714 229.884718 18.1817857 247.76033 18.1817857 247.76033 0.976785714 257.511444 0.976785714"></polygon>
                        </g>
                    </g>
                </g>
            </g>
        </g>
    </g>
</svg>