<?xml version="1.0" encoding="UTF-8"?>
<svg width="205px" height="50px" viewBox="0 0 205 50" version="1.1" xmlns="http://www.w3.org/2000/svg" xmlns:xlink="http://www.w3.org/1999/xlink">
    <!-- Generator: Sketch 56.3 (81716) - https://sketch.com -->
    <title>Group 4</title>
    <desc>Created with Sketch.</desc>
    <g id="java" stroke="none" stroke-width="1" fill="none" fill-rule="evenodd">
        <g id="java-home-2" transform="translate(-388.000000, -51.000000)">
            <g id="Group-4" transform="translate(388.000000, 51.000000)">
                <g id="Page-1" transform="translate(-0.000000, 0.000000)">
                    <polygon id="Fill-1" fill="#FFFFFF" points="0 0 0 50 91.3033979 50 96.6981132 25.6199167 91.3033979 0"></polygon>
                    <polygon id="Fill-2" fill="#F3F3F3" points="0 25.3924044 0 50 91.3033979 50 96.6981132 25.3846154"></polygon>
                    <g id="Group-17" transform="translate(5.415094, 7.692308)">
                        <path d="M27.9176159,19.5862637 C27.9176159,29.55 23.2458917,34.5318681 13.9029961,34.5318681 C4.83985103,34.5318681 0.30800208,29.6659341 0.30800208,19.932967 L0.30800208,0.776923077 L7.85076349,0.776923077 L7.85076349,20.0258242 C7.85076349,25.3928571 9.96105597,28.0769231 14.1827467,28.0769231 C18.3264831,28.0769231 20.3980749,25.4857143 20.3980749,20.3032967 L20.3980749,0.776923077 L27.9176159,0.776923077 L27.9176159,19.5862637 Z" id="Fill-3" fill="#92B700"></path>
                        <path d="M31.2556044,32.6802747 L31.2556044,25.2742308 C32.6062579,26.4000549 34.0735663,27.2445604 35.6575296,27.8082967 C37.2409401,28.3714835 38.8403837,28.6528022 40.4547546,28.6528022 C41.4023683,28.6528022 42.2289041,28.5681868 42.934915,28.3984066 C43.6414787,28.2286264 44.2313876,27.9934615 44.7051944,27.6923626 C45.1790012,27.3918132 45.5317302,27.0368681 45.76504,26.6275275 C45.9977969,26.2187363 46.1138989,25.7753297 46.1138989,25.2967582 C46.1138989,24.648956 45.9281357,24.0703846 45.5549506,23.561044 C45.1823184,23.0522527 44.6742339,22.5813736 44.0295912,22.148956 C43.3855014,21.7170879 42.6208867,21.3006044 41.735747,20.8995055 C40.8506073,20.4978571 39.8958063,20.0890659 38.8713442,19.6725824 C36.2629188,18.5923626 34.3184863,17.2731319 33.037494,15.7148901 C31.7565017,14.1560989 31.116282,12.2736813 31.116282,10.0676374 C31.116282,8.33906593 31.4651409,6.8539011 32.1639645,5.61159341 C32.8627881,4.36983516 33.8137189,3.34730769 35.016757,2.54510989 C36.2197951,1.74291209 37.6135723,1.1528022 39.1975356,0.77478022 C40.780946,0.396758242 42.457791,0.207197802 44.2275175,0.207197802 C45.9668364,0.207197802 47.5076761,0.311593407 48.8505895,0.520384615 C50.1935029,0.728626374 51.4319245,1.04895604 52.5653013,1.48082418 L52.5653013,8.40115385 C52.006353,8.01489011 51.3970938,7.67587912 50.7369709,7.38247253 C50.076848,7.08961538 49.3979276,6.84620879 48.699104,6.65335165 C48.0008333,6.46049451 47.3058797,6.31818681 46.6147962,6.22532967 C45.9237128,6.13302198 45.2680128,6.08686813 44.6471434,6.08686813 C43.7929642,6.08686813 43.0167393,6.16763736 42.3179157,6.32972527 C41.6196449,6.49181319 41.0291832,6.71928571 40.5481891,7.01214286 C40.0666422,7.305 39.69401,7.65664835 39.4302925,8.06543956 C39.1665751,8.47423077 39.0344399,8.93302198 39.0344399,9.44236264 C39.0344399,9.99840659 39.1815025,10.4956593 39.4767333,10.9352198 C39.7719642,11.3753297 40.1910372,11.7912637 40.7345052,12.1852198 C41.2774204,12.5786264 41.9375433,12.9643407 42.7137683,13.3429121 C43.4899932,13.7203846 44.3673928,14.1099451 45.3454141,14.5115934 C46.6805874,15.0665385 47.8803083,15.6571978 48.944024,16.2819231 C50.0071868,16.9066484 50.919417,17.6126923 51.6801616,18.4000549 C52.4409063,19.1863187 53.023075,20.0852198 53.4272206,21.0962088 C53.8308134,22.1066484 54.0326098,23.283022 54.0326098,24.6258791 C54.0326098,26.4775275 53.6793279,28.0319231 52.9727642,29.2896154 C52.2662004,30.5467582 51.3075294,31.5654396 50.0967512,32.3445604 C48.8854201,33.1242308 47.4767155,33.683022 45.8695318,34.0225824 C44.2623481,34.3621429 42.5661529,34.5319231 40.780946,34.5319231 C38.9487455,34.5319231 37.2061095,34.3775275 35.552485,34.0687363 C33.8988604,33.7604945 32.4669355,33.2973077 31.2556044,32.6802747" id="Fill-5" fill="#92B700"></path>
                        <polygon id="Fill-7" fill="#92B700" points="77.1619019 33.9481868 57.1448074 33.9481868 57.1448074 0.776758242 76.3939699 0.776758242 76.3939699 6.86027473 64.6626898 6.86027473 64.6626898 14.2393956 75.5790443 14.2393956 75.5790443 20.2998352 64.6626898 20.2998352 64.6626898 27.8877473 77.1619019 27.8877473"></polygon>
                        <polygon id="Fill-9" fill="#FFFFFF" points="117.849745 6.83730769 108.326615 6.83730769 108.326615 33.9334615 100.782748 33.9334615 100.782748 6.83730769 91.3066113 6.83730769 91.3066113 0.751593407 117.849745 0.751593407"></polygon>
                        <polygon id="Fill-11" fill="#FFFFFF" points="139.976247 33.9299451 119.95473 33.9299451 119.95473 0.751373626 139.207763 0.751373626 139.207763 6.83653846 127.474824 6.83653846 127.474824 14.2173077 138.39339 14.2173077 138.39339 20.2788462 127.474824 20.2788462 127.474824 27.8684066 139.976247 27.8684066"></polygon>
                        <path d="M166.879961,32.772033 C164.443477,33.9445604 161.261729,34.5302747 157.334716,34.5302747 C152.212958,34.5302747 148.185877,33.0346703 145.252366,30.0418132 C142.318855,27.0495055 140.852099,23.0621429 140.852099,18.0802747 C140.852099,12.7742308 142.500748,8.47038462 145.799151,5.17038462 C149.097554,1.86928571 153.376743,0.218736264 158.638376,0.218736264 C161.897526,0.218736264 164.644721,0.627527473 166.879961,1.44456044 L166.879961,8.64071429 C164.644721,7.31379121 162.099875,6.6506044 159.243212,6.6506044 C156.109011,6.6506044 153.578539,7.63027473 151.654563,9.58906593 C149.729481,11.5478571 148.767493,14.2011538 148.767493,17.5484066 C148.767493,20.7566484 149.6753,23.3132418 151.491467,25.2181868 C153.307082,27.1231319 155.751859,28.0753297 158.824692,28.0753297 C161.75765,28.0753297 164.443477,27.365989 166.879961,25.9467582 L166.879961,32.772033 Z" id="Fill-13" fill="#FFFFFF"></path>
                        <polygon id="Fill-15" fill="#FFFFFF" points="199.206966 33.9299451 191.663652 33.9299451 191.663652 20.4178571 177.835348 20.4178571 177.835348 33.9299451 170.315254 33.9299451 170.315254 0.751373626 177.835348 0.751373626 177.835348 13.985989 191.663652 13.985989 191.663652 0.751373626 199.206966 0.751373626"></polygon>
                    </g>
                </g>
            </g>
        </g>
    </g>
</svg>