<svg width="53" height="29" viewBox="0 0 53 29" fill="none" xmlns="http://www.w3.org/2000/svg">
<path d="M26.6414 24.866L23.0622 28.0908L20.0146 25.0432C18.1246 26.0118 15.9393 26.4961 13.4586 26.4961C11.3324 26.4961 9.41875 26.1418 7.71775 25.433C6.01675 24.7243 4.62288 23.7674 3.53613 22.5626C2.473 21.3577 1.65794 19.9874 1.09094 18.4518C0.547567 16.9162 0.275879 15.2979 0.275879 13.5969C0.275879 11.8959 0.547567 10.2776 1.09094 8.74195C1.65794 7.20632 2.473 5.83607 3.53613 4.63119C4.62288 3.42632 6.01675 2.46951 7.71775 1.76076C9.41875 1.05201 11.3324 0.697632 13.4586 0.697632C15.5849 0.697632 17.4985 1.05201 19.1995 1.76076C20.9005 2.46951 22.2826 3.42632 23.3457 4.63119C24.4324 5.83607 25.2475 7.20632 25.7909 8.74195C26.3579 10.2776 26.6414 11.8959 26.6414 13.5969C26.6414 16.8808 25.6846 19.6921 23.7709 22.031L26.6414 24.866ZM5.69782 13.5969C5.69782 15.8885 6.37113 17.7903 7.71775 19.3023C9.06438 20.8143 10.978 21.5703 13.4586 21.5703C14.4036 21.5703 15.2778 21.4168 16.081 21.1096L13.1043 18.1329L16.5063 14.7663L19.9083 18.1329C20.7588 16.8571 21.184 15.3451 21.184 13.5969C21.184 11.3053 20.5107 9.39163 19.1641 7.85601C17.8174 6.32038 15.9156 5.55257 13.4586 5.55257C10.978 5.55257 9.06438 6.32038 7.71775 7.85601C6.37113 9.36801 5.69782 11.2816 5.69782 13.5969Z" fill="#959595"/>
<path d="M32.3886 26H26.8958L37.0309 1.19376H42.7718L52.8715 26H47.3787L45.5714 21.3577H34.2314L32.3886 26ZM39.3344 8.06863L35.8969 16.9634H43.9058L40.4329 8.06863C40.1967 7.40713 40.0195 6.75744 39.9014 6.11957C39.7596 6.85194 39.5706 7.50163 39.3344 8.06863Z" fill="#959595"/>
</svg>
