<svg width="105" height="80" viewBox="0 0 105 80" fill="none" xmlns="http://www.w3.org/2000/svg">
<path fill-rule="evenodd" clip-rule="evenodd" d="M10.5645 42.3048L18.2551 59.7608L49.9515 45.7962L48.0743 36.4595L42.2608 28.3402L10.5645 42.3048Z" fill="#979797"/>
<path fill-rule="evenodd" clip-rule="evenodd" d="M14.4699 51.1699L18.2549 59.7609L49.9513 45.7963L48.0379 36.3775L14.4699 51.1699Z" fill="#333333"/>
<path fill-rule="evenodd" clip-rule="evenodd" d="M26.3314 46.7303C27.864 50.2088 27.0084 52.6626 23.765 54.0916C20.6187 55.4777 18.297 54.4721 16.8 51.0741L13.8535 44.3864L16.472 43.2327L19.4327 49.9529C20.2583 51.8266 21.4037 52.4409 22.8693 51.7952C24.3078 51.1614 24.6284 49.94 23.8313 48.1307L20.8279 41.3136L23.4383 40.1636L26.3314 46.7303Z" fill="white"/>
<path fill-rule="evenodd" clip-rule="evenodd" d="M29.5041 50.7911L28.3649 48.2055C29.007 48.392 29.6463 48.4624 30.2829 48.417C30.9192 48.3714 31.5177 48.225 32.0781 47.9781C32.4071 47.8331 32.681 47.6772 32.9 47.5099C33.1192 47.3426 33.2878 47.1703 33.406 46.9927C33.5242 46.8153 33.5921 46.6374 33.6101 46.4588C33.628 46.2805 33.6001 46.1079 33.5265 45.9409C33.4269 45.7147 33.2734 45.5411 33.0655 45.4204C32.8579 45.2997 32.6091 45.2131 32.3188 45.1607C32.0287 45.1084 31.6992 45.08 31.3303 45.0753C30.9612 45.0705 30.5669 45.0738 30.1472 45.0851C29.0755 45.1069 28.1976 44.9437 27.5132 44.5956C26.8287 44.2474 26.3169 43.6881 25.9776 42.9179C25.7117 42.3144 25.6044 41.7426 25.6559 41.202C25.7075 40.6616 25.8804 40.1592 26.1746 39.6951C26.4689 39.231 26.8619 38.8118 27.3537 38.4376C27.8452 38.0634 28.3982 37.7408 29.0126 37.4701C29.6164 37.2041 30.1673 37.0049 30.6657 36.8724C31.1639 36.7397 31.6431 36.6621 32.103 36.6395L33.1674 39.0555C32.9139 39.0062 32.6503 38.981 32.376 38.9795C32.1018 38.9783 31.8287 38.9971 31.5564 39.0367C31.2843 39.0762 31.0212 39.1328 30.767 39.206C30.5129 39.2795 30.2781 39.3637 30.0626 39.4586C29.7661 39.5893 29.509 39.7362 29.2914 39.8997C29.0739 40.0631 28.9039 40.2328 28.782 40.4086C28.6598 40.5845 28.5846 40.7643 28.5559 40.9473C28.5272 41.1304 28.5519 41.3107 28.6302 41.4886C28.7158 41.6827 28.8433 41.8338 29.0134 41.9421C29.1836 42.0506 29.3931 42.1317 29.6423 42.1861C29.8913 42.2404 30.1798 42.2741 30.5075 42.2876C30.835 42.3006 31.1995 42.3024 31.6008 42.2931C32.1497 42.2826 32.6571 42.3053 33.1224 42.3607C33.5876 42.4162 34.0129 42.5232 34.3981 42.6817C34.7831 42.8399 35.1235 43.0647 35.4193 43.3558C35.7148 43.6468 35.9658 44.0267 36.1723 44.4955C36.4572 45.1419 36.5736 45.7386 36.5218 46.2858C36.4698 46.8328 36.2937 47.335 35.9932 47.7922C35.6926 48.2497 35.2895 48.6602 34.7838 49.0246C34.2781 49.3889 33.7154 49.7076 33.0957 49.9807C32.4596 50.2609 31.8309 50.4735 31.2093 50.6187C30.5879 50.764 30.0195 50.8213 29.5041 50.7911" fill="white"/>
<path fill-rule="evenodd" clip-rule="evenodd" d="M45.6362 44.2125L38.6872 47.2741L33.585 35.6933L40.2674 32.7492L41.2031 34.873L37.1305 36.6673L38.2656 39.2435L42.0552 37.5739L42.9874 39.6897L39.1977 41.3593L40.3648 44.0084L44.704 42.0967L45.6362 44.2125Z" fill="white"/>
<path fill-rule="evenodd" clip-rule="evenodd" d="M55.5906 28.5245L52.2846 29.981L56.4523 39.4408L53.8334 40.5946L49.6657 31.1348L46.376 32.5842L45.4399 30.4595L54.6545 26.3999L55.5906 28.5245Z" fill="#333333"/>
<path fill-rule="evenodd" clip-rule="evenodd" d="M67.4396 34.5989L60.489 37.6611L55.3857 26.0778L62.0695 23.1331L63.0055 25.2576L58.9324 27.0521L60.0676 29.6288L63.858 27.9589L64.7904 30.0751L61 31.745L62.1673 34.3947L66.5072 32.4827L67.4396 34.5989Z" fill="#333333"/>
<path fill-rule="evenodd" clip-rule="evenodd" d="M76.6009 30.0797C75.9354 30.8618 74.921 31.5529 73.5577 32.1535C71.7796 32.9369 70.1516 33.0306 68.6729 32.4345C67.1942 31.8385 66.0717 30.6707 65.3054 28.9315C64.4893 27.079 64.3997 25.3243 65.0371 23.6677C65.6744 22.0108 66.9061 20.78 68.7327 19.9753C69.8641 19.4768 70.8807 19.1994 71.7823 19.1427L72.8892 21.655C71.9091 21.5337 70.9237 21.6914 69.932 22.1283C68.8439 22.6076 68.1161 23.3367 67.7495 24.3148C67.3825 25.2931 67.4566 26.3665 67.9715 27.5351C68.465 28.6552 69.1734 29.4089 70.0968 29.7962C71.0201 30.1835 72.0153 30.142 73.0821 29.6721C74.1003 29.2235 74.9236 28.565 75.5511 27.6969L76.6009 30.0797Z" fill="#333333"/>
<path fill-rule="evenodd" clip-rule="evenodd" d="M88.0018 25.5397L85.3831 26.6934L83.3048 21.9761L78.5042 24.0911L80.5826 28.8084L77.9719 29.9586L72.8687 18.3753L75.4793 17.2251L77.5149 21.8456L82.3155 19.7306L80.2798 15.1101L82.8985 13.9564L88.0018 25.5397Z" fill="#333333"/>
<path d="M19.6426 63.0365L21.9763 62.0083C23.5728 61.3049 24.6611 61.6117 25.2412 62.9285C25.8191 64.2402 25.3099 65.2478 23.7134 65.9511L23.1414 66.2031L23.7563 67.5988L21.9946 68.3749L19.6426 63.0365ZM23.4948 63.6979C23.3402 63.3471 23.0418 63.2691 22.5994 63.464L22.0427 63.7093L22.503 64.7541L23.0598 64.5088C23.5021 64.314 23.6471 64.0437 23.4948 63.6979Z" fill="#333333"/>
<path d="M27.628 59.5183L31.67 57.7375L32.2816 59.1255L30.0013 60.1301L30.2734 60.7479L32.2792 59.8642L32.8504 61.1607L30.8446 62.0444L31.1235 62.6773L33.4496 61.6525L34.0678 63.0558L29.98 64.8568L27.628 59.5183Z" fill="#333333"/>
<path d="M35.9617 55.8467L40.0724 54.0356L42.4243 59.3741L40.6626 60.1503L38.9894 56.3523L38.2496 56.6783C38.3608 56.9996 38.4575 57.2879 38.5396 57.5431C38.6194 57.7933 38.6956 58.0694 38.7679 58.3714C38.8403 58.6735 38.8904 58.9458 38.9184 59.1885C38.9442 59.426 38.9485 59.67 38.9313 59.9204C38.9141 60.1708 38.8686 60.3913 38.7946 60.5817C38.7184 60.767 38.6042 60.9418 38.4519 61.1061C38.3025 61.263 38.1159 61.3907 37.8922 61.4893C37.6126 61.6125 37.3288 61.6919 37.041 61.7277L36.369 60.2024C36.5964 60.1811 36.7677 60.0875 36.8827 59.9214C36.9722 59.8213 37.024 59.6771 37.0381 59.4887C37.0523 59.3003 37.0405 59.1082 37.0027 58.9123C36.9701 58.7142 36.9074 58.4686 36.8147 58.1756C36.7271 57.8802 36.6425 57.6261 36.5608 57.4132C36.4791 57.2002 36.3743 56.9277 36.2462 56.5956C36.118 56.2635 36.0232 56.0139 35.9617 55.8467Z" fill="#333333"/>
<path d="M46.185 56.925C45.4487 56.618 44.9024 56.0603 44.5463 55.2519C44.1901 54.4435 44.1484 53.6666 44.421 52.9211C44.6914 52.1706 45.2867 51.5926 46.2069 51.1872C47.1272 50.7818 47.9555 50.7325 48.6918 51.0395C49.4258 51.3415 49.9709 51.8966 50.3271 52.705C50.6832 53.5134 50.7261 54.2929 50.4558 55.0434C50.1831 55.7888 49.5867 56.3643 48.6664 56.7697C47.7462 57.1752 46.919 57.2269 46.185 56.925ZM48.6162 54.5061C48.7154 54.2074 48.6832 53.8725 48.5196 53.5013C48.3561 53.1302 48.1307 52.8804 47.8434 52.752C47.5612 52.6213 47.2498 52.631 46.9092 52.7811C46.5685 52.9312 46.3486 53.1556 46.2495 53.4542C46.1555 53.7506 46.1902 54.0844 46.3537 54.4556C46.5173 54.8267 46.7401 55.0776 47.0223 55.2083C47.3096 55.3367 47.6236 55.3259 47.9642 55.1758C48.3048 55.0257 48.5222 54.8025 48.6162 54.5061Z" fill="#333333"/>
<path d="M56.5619 53.1455L54.8002 53.9216L52.4482 48.5831L54.2099 47.807L55.0432 49.6983L55.4856 49.5035L55.72 47.1417L57.6571 46.2883L57.1986 49.6503L60.0396 51.6133L58.1025 52.4667L56.1261 51.0608L55.7219 51.2389L56.5619 53.1455Z" fill="#333333"/>
<path d="M64.4187 49.684L62.6342 50.4702L62.2803 44.2514L64.1716 43.4181L68.5141 47.8796L66.7295 48.6659L66.1883 48.0574L64.3427 48.8706L64.4187 49.684ZM64.0588 46.1179L64.1857 47.4189L65.2306 46.9585L64.3562 45.9869C64.1865 45.7945 64.0348 45.5881 63.9013 45.3677C63.9604 45.5845 64.0129 45.8346 64.0588 46.1179Z" fill="#333333"/>
<path d="M77.6905 45.0753L76.1271 45.7641L75.6701 44.7269L71.6052 46.5178L69.2532 41.1793L71.0149 40.4031L72.6882 44.2011L74.1448 43.5593L72.4716 39.7614L74.2333 38.9852L75.9065 42.7832L76.5548 42.4976L77.6905 45.0753Z" fill="#333333"/>
<path d="M85.5545 40.3721L83.7928 41.1483L83.0872 39.5467C82.9349 39.201 82.818 38.8943 82.7365 38.6266L82.0311 41.9244L80.5439 42.5796L78.192 37.2411L79.9537 36.465L80.6559 38.0589C80.8127 38.4148 80.9318 38.7266 81.0133 38.9942L81.7153 35.6888L83.2025 35.0336L85.5545 40.3721Z" fill="#333333"/>
<path d="M90.6441 38.1298L88.6612 39.0034L89.1888 36.5216C88.3991 36.493 87.8453 36.1178 87.5272 35.3958C87.3771 35.0552 87.3071 34.7309 87.3171 34.4229C87.3322 34.1127 87.4177 33.8383 87.5736 33.5996C87.7295 33.3609 87.9226 33.1514 88.1527 32.9711C88.388 32.7885 88.6582 32.63 88.9632 32.4956L91.4418 31.4036L93.7938 36.7421L92.0397 37.5149L91.3442 35.9362L91.0468 36.0672L90.6441 38.1298ZM89.3122 34.2178C89.2508 34.3542 89.2537 34.4986 89.3209 34.6511C89.3881 34.8036 89.4927 34.9033 89.6347 34.95C89.7767 34.9967 89.9444 34.9775 90.1376 34.8924L90.7629 34.6168L90.3194 33.6102L89.694 33.8857C89.5008 33.9708 89.3735 34.0815 89.3122 34.2178Z" fill="#333333"/>
<path fill-rule="evenodd" clip-rule="evenodd" d="M83.6246 3.38193L4.23749 38.3578C3.29604 38.7726 2.90366 39.9505 3.36108 40.9887L18.2691 74.8264C18.7265 75.8647 19.8605 76.3701 20.802 75.9553L100.189 40.9794C101.13 40.5646 101.523 39.3867 101.065 38.3485L86.1574 4.51078C85.7 3.47256 84.566 2.96715 83.6246 3.38193ZM3.40926 36.4779C1.52638 37.3075 0.741616 39.6633 1.65645 41.7397L16.5645 75.5774C17.4793 77.6539 19.7473 78.6647 21.6302 77.8352L101.017 42.8593C102.9 42.0297 103.685 39.6739 102.77 37.5975L87.8621 3.75977C86.9472 1.68332 84.6792 0.672503 82.7964 1.50205L3.40926 36.4779Z" fill="black"/>
</svg>
