<svg width="595" height="595" viewBox="0 0 595 595" fill="none" xmlns="http://www.w3.org/2000/svg">
<rect width="595" height="595" fill="#043E7C"/>
<circle cx="297.5" cy="297.5" r="297.5" fill="#043E7C"/>
<path fill-rule="evenodd" clip-rule="evenodd" d="M351.863 252.492C347.215 257.14 344.89 263.636 344.89 271.98C344.89 277.953 346.064 282.927 348.412 286.902C350.759 290.876 353.815 293.781 357.581 295.617C361.369 297.454 366.145 298.372 371.909 298.372C377.581 298.372 382.31 297.314 386.099 295.199C389.91 293.061 392.816 290.086 394.815 286.274C396.837 282.439 397.848 277.535 397.848 271.562C397.848 263.334 395.547 256.942 390.945 252.387C386.343 247.808 379.789 245.519 371.282 245.519C362.984 245.519 356.511 247.843 351.863 252.492ZM363.542 283.171C361.636 280.917 360.683 277.21 360.683 272.05C360.683 266.844 361.648 263.113 363.577 260.859C365.506 258.604 368.063 257.477 371.247 257.477C374.571 257.477 377.197 258.593 379.126 260.824C381.078 263.032 382.055 266.541 382.055 271.353C382.055 277.07 381.125 281.033 379.266 283.241C377.406 285.449 374.78 286.553 371.386 286.553C368.086 286.553 365.471 285.426 363.542 283.171ZM52.9341 246.39H67.6813L86.9258 274.665V246.39H101.812V297.5H86.9258L67.7858 269.435V297.5H52.9341V246.39ZM127.265 246.39H169.589V257.303H143.093V265.426H167.672V275.85H143.093V285.925H170.356V297.5H127.265V246.39ZM238.308 246.39H190.301V259.011H206.408V297.5H222.201V259.011H238.308V246.39ZM255.219 246.39H270.21L275.614 274.943L283.493 246.39H298.45L306.364 274.943L311.767 246.39H326.689L315.428 297.5H299.949L290.989 265.321L282.064 297.5H266.585L255.219 246.39ZM421.557 297.5V246.39H447.879C452.76 246.39 456.491 246.809 459.07 247.646C461.65 248.482 463.73 250.039 465.311 252.317C466.891 254.572 467.682 257.326 467.682 260.58C467.682 263.415 467.077 265.867 465.869 267.936C464.66 269.981 462.998 271.643 460.883 272.921C459.535 273.735 457.688 274.409 455.34 274.943C457.223 275.571 458.594 276.199 459.454 276.826C460.035 277.244 460.872 278.139 461.964 279.511C463.08 280.882 463.823 281.939 464.195 282.683L471.83 297.5H453.98L445.543 281.881C444.474 279.859 443.521 278.546 442.685 277.942C441.546 277.151 440.256 276.756 438.815 276.756H437.42V297.5H421.557ZM437.42 267.099H444.079C444.8 267.099 446.194 266.867 448.263 266.402C449.309 266.193 450.157 265.658 450.808 264.798C451.482 263.938 451.819 262.951 451.819 261.835C451.819 260.185 451.296 258.918 450.25 258.035C449.204 257.152 447.24 256.71 444.358 256.71H437.42V267.099ZM507.777 246.39H491.984V297.5H507.777V285.019L515.935 276.477L526.708 297.5H546.162L526.708 265.67L545.325 246.39H524.337L507.777 265.705V246.39ZM153.732 318.095C150.943 320.885 149.548 324.782 149.548 329.789C149.548 333.373 150.253 336.357 151.661 338.742C153.07 341.126 154.903 342.869 157.163 343.971C159.436 345.073 162.301 345.624 165.76 345.624C169.162 345.624 172 344.989 174.273 343.72C176.56 342.437 178.304 340.652 179.503 338.365C180.716 336.064 181.323 333.122 181.323 329.538C181.323 324.601 179.942 320.766 177.181 318.033C174.42 315.285 170.487 313.912 165.383 313.912C160.405 313.912 156.521 315.306 153.732 318.095ZM160.739 336.503C159.596 335.151 159.024 332.926 159.024 329.83C159.024 326.707 159.603 324.468 160.76 323.116C161.918 321.763 163.452 321.087 165.362 321.087C167.357 321.087 168.932 321.756 170.09 323.095C171.261 324.42 171.847 326.525 171.847 329.412C171.847 332.843 171.289 335.22 170.173 336.545C169.058 337.87 167.482 338.532 165.446 338.532C163.466 338.532 161.897 337.856 160.739 336.503ZM86.397 314.435H102.148C105.579 314.435 108.145 315.251 109.846 316.882C111.561 318.514 112.419 320.836 112.419 323.848C112.419 326.944 111.485 329.363 109.616 331.106C107.761 332.85 104.923 333.721 101.102 333.721H95.9147V345.101H86.397V314.435ZM95.9147 327.509H98.2366C100.063 327.509 101.346 327.195 102.085 326.567C102.825 325.926 103.194 325.11 103.194 324.12C103.194 323.158 102.873 322.342 102.232 321.672C101.59 321.003 100.384 320.668 98.6131 320.668H95.9147V327.509ZM117.523 345.101V314.435H133.316C136.245 314.435 138.483 314.686 140.031 315.188C141.579 315.69 142.827 316.624 143.775 317.991C144.723 319.344 145.197 320.996 145.197 322.948C145.197 324.65 144.835 326.121 144.11 327.362C143.385 328.589 142.387 329.586 141.118 330.353C140.31 330.841 139.201 331.246 137.792 331.567C138.922 331.943 139.745 332.32 140.261 332.696C140.609 332.947 141.111 333.484 141.767 334.307C142.436 335.13 142.883 335.764 143.106 336.21L147.687 345.101H136.977L131.915 335.729C131.273 334.516 130.701 333.728 130.199 333.366C129.516 332.891 128.742 332.654 127.877 332.654H127.041V345.101H117.523ZM127.041 326.86H131.036C131.468 326.86 132.305 326.721 133.546 326.442C134.174 326.316 134.683 325.995 135.073 325.48C135.478 324.964 135.68 324.371 135.68 323.701C135.68 322.711 135.366 321.951 134.738 321.421C134.111 320.892 132.933 320.627 131.203 320.627H127.041V326.86ZM186.552 314.435H200.63C203.405 314.435 205.643 314.811 207.345 315.564C209.06 316.317 210.475 317.398 211.591 318.807C212.707 320.215 213.516 321.854 214.018 323.722C214.52 325.591 214.771 327.571 214.771 329.663C214.771 332.94 214.394 335.485 213.641 337.298C212.902 339.097 211.87 340.61 210.545 341.837C209.22 343.051 207.798 343.859 206.278 344.264C204.2 344.822 202.317 345.101 200.63 345.101H186.552V314.435ZM196.028 321.38V338.135H198.35C200.33 338.135 201.739 337.919 202.575 337.486C203.412 337.04 204.068 336.273 204.542 335.185C205.016 334.084 205.253 332.306 205.253 329.851C205.253 326.602 204.723 324.378 203.663 323.179C202.603 321.979 200.846 321.38 198.392 321.38H196.028ZM249.181 314.435H239.726V333.156C239.726 334.858 239.259 336.176 238.324 337.11C237.404 338.03 236.128 338.491 234.496 338.491C232.851 338.491 231.561 338.023 230.626 337.089C229.706 336.141 229.246 334.83 229.246 333.156V314.435H219.791V332.717C219.791 334.223 220.084 335.952 220.669 337.905C221.032 339.118 221.701 340.296 222.678 341.44C223.668 342.583 224.755 343.469 225.941 344.097C227.126 344.71 228.597 345.121 230.354 345.331C232.126 345.54 233.757 345.644 235.249 345.644C237.829 345.644 240.039 345.303 241.88 344.619C243.205 344.131 244.467 343.288 245.666 342.088C246.88 340.875 247.765 339.467 248.323 337.863C248.895 336.245 249.181 334.53 249.181 332.717V314.435ZM275.872 332.571L284.176 335.081C283.619 337.41 282.74 339.355 281.541 340.917C280.341 342.479 278.849 343.657 277.064 344.452C275.293 345.247 273.034 345.644 270.287 345.644C266.954 345.644 264.228 345.163 262.108 344.201C260.002 343.225 258.182 341.517 256.648 339.076C255.114 336.636 254.347 333.512 254.347 329.705C254.347 324.629 255.693 320.731 258.385 318.012C261.09 315.279 264.911 313.912 269.848 313.912C273.71 313.912 276.744 314.693 278.947 316.255C281.164 317.817 282.81 320.215 283.884 323.45L275.516 325.312C275.224 324.378 274.917 323.695 274.596 323.262C274.066 322.537 273.418 321.979 272.651 321.589C271.884 321.198 271.026 321.003 270.078 321.003C267.93 321.003 266.285 321.868 265.141 323.597C264.276 324.88 263.844 326.895 263.844 329.642C263.844 333.045 264.36 335.381 265.392 336.65C266.424 337.905 267.874 338.532 269.743 338.532C271.556 338.532 272.923 338.023 273.843 337.005C274.777 335.987 275.454 334.509 275.872 332.571ZM315.449 314.435H286.645V322.007H296.309V345.101H305.785V322.007H315.449V314.435ZM318.105 334.955L327.121 334.391C327.316 335.855 327.714 336.97 328.313 337.737C329.289 338.979 330.684 339.599 332.497 339.599C333.85 339.599 334.889 339.285 335.614 338.658C336.353 338.016 336.722 337.277 336.722 336.441C336.722 335.646 336.374 334.934 335.676 334.307C334.979 333.679 333.362 333.087 330.823 332.529C326.668 331.595 323.704 330.353 321.933 328.805C320.148 327.258 319.256 325.284 319.256 322.886C319.256 321.31 319.709 319.825 320.616 318.43C321.536 317.022 322.91 315.92 324.736 315.125C326.577 314.316 329.094 313.912 332.288 313.912C336.206 313.912 339.191 314.644 341.241 316.108C343.305 317.559 344.532 319.874 344.922 323.053L335.99 323.576C335.753 322.195 335.251 321.191 334.484 320.564C333.731 319.936 332.685 319.622 331.346 319.622C330.245 319.622 329.415 319.86 328.857 320.334C328.299 320.794 328.02 321.359 328.02 322.028C328.02 322.516 328.251 322.955 328.711 323.346C329.157 323.75 330.217 324.127 331.89 324.475C336.032 325.368 338.995 326.274 340.78 327.195C342.579 328.101 343.883 329.231 344.692 330.584C345.515 331.936 345.926 333.449 345.926 335.123C345.926 337.089 345.382 338.902 344.295 340.561C343.207 342.221 341.687 343.483 339.735 344.348C337.782 345.198 335.321 345.624 332.35 345.624C327.135 345.624 323.523 344.619 321.515 342.611C319.507 340.603 318.37 338.051 318.105 334.955ZM380.441 327.613V333.993H386.779V336.88C385.538 337.619 384.436 338.142 383.474 338.449C382.512 338.755 381.501 338.909 380.441 338.909C378.21 338.909 376.466 338.198 375.211 336.775C373.97 335.353 373.35 332.982 373.35 329.663C373.35 326.539 373.963 324.259 375.19 322.823C376.432 321.373 378.091 320.647 380.169 320.647C381.563 320.647 382.707 320.954 383.6 321.568C384.506 322.181 385.147 323.067 385.524 324.224L394.665 322.593C394.107 320.613 393.271 318.981 392.155 317.698C391.053 316.401 389.659 315.446 387.971 314.832C386.298 314.219 383.767 313.912 380.378 313.912C376.864 313.912 374.068 314.407 371.99 315.397C369.326 316.68 367.304 318.563 365.924 321.045C364.543 323.513 363.853 326.421 363.853 329.768C363.853 332.947 364.48 335.764 365.736 338.219C367.005 340.673 368.783 342.521 371.07 343.762C373.371 345.003 376.341 345.624 379.981 345.624C382.937 345.624 385.489 345.282 387.637 344.599C389.798 343.901 392.28 342.597 395.083 340.687V327.613H380.441ZM420.666 314.435H430.121V332.717C430.121 334.53 429.835 336.245 429.263 337.863C428.706 339.467 427.82 340.875 426.607 342.088C425.408 343.288 424.146 344.131 422.821 344.619C420.98 345.303 418.77 345.644 416.19 345.644C414.698 345.644 413.066 345.54 411.295 345.331C409.538 345.121 408.067 344.71 406.881 344.097C405.696 343.469 404.608 342.583 403.618 341.44C402.642 340.296 401.972 339.118 401.61 337.905C401.024 335.952 400.731 334.223 400.731 332.717V314.435H410.186V333.156C410.186 334.83 410.646 336.141 411.567 337.089C412.501 338.023 413.791 338.491 415.437 338.491C417.068 338.491 418.344 338.03 419.265 337.11C420.199 336.176 420.666 334.858 420.666 333.156V314.435ZM446.27 314.435H436.773V345.101H446.27V314.435ZM453.215 314.435H467.292C470.067 314.435 472.306 314.811 474.007 315.564C475.722 316.317 477.138 317.398 478.253 318.807C479.369 320.215 480.178 321.854 480.68 323.722C481.182 325.591 481.433 327.571 481.433 329.663C481.433 332.94 481.056 335.485 480.303 337.298C479.564 339.097 478.532 340.61 477.207 341.837C475.883 343.051 474.46 343.859 472.94 344.264C470.862 344.822 468.98 345.101 467.292 345.101H453.215V314.435ZM462.69 321.38V338.135H465.012C466.992 338.135 468.401 337.919 469.238 337.486C470.074 337.04 470.73 336.273 471.204 335.185C471.678 334.084 471.915 332.306 471.915 329.851C471.915 326.602 471.385 324.378 470.325 323.179C469.266 321.979 467.508 321.38 465.054 321.38H462.69ZM511.806 314.435H486.411V345.101H512.266V338.156H495.908V332.111H510.655V325.856H495.908V320.982H511.806V314.435Z" fill="white"/>
<path fill-rule="evenodd" clip-rule="evenodd" d="M547.4 368.9H47.6V362.95H547.4V368.9Z" fill="white"/>
<path fill-rule="evenodd" clip-rule="evenodd" d="M547.4 380.799H47.6V377.229H547.4V380.799Z" fill="white"/>
<path fill-rule="evenodd" clip-rule="evenodd" d="M547.4 226.1H47.6V220.15H547.4V226.1Z" fill="white"/>
<path fill-rule="evenodd" clip-rule="evenodd" d="M547.4 214.199H47.6V210.629H547.4V214.199Z" fill="white"/>
</svg>
