<?xml version="1.0" encoding="UTF-8"?>
<svg enable-background="new 0 0 224 58" version="1.1" viewBox="0 0 224 58" xml:space="preserve" xmlns="http://www.w3.org/2000/svg">
<style type="text/css">
	.st0{fill:#2C2C2C;}
	.st1{fill:#002C5F;}
	.st2{fill-rule:evenodd;clip-rule:evenodd;fill:#002C5F;}
	.st3{fill-rule:evenodd;clip-rule:evenodd;fill:#FFFFFF;}
</style>
		<path class="st0" d="M56.2,19.2h13.1v2.2h-5.5v16.1h-2.3V21.4h-5.3V19.2z"/>
		<path class="st0" d="m73.3 24.1c4.6 0 6 1.7 6 7 0 4.9-1.4 6.6-6 6.6s-6-1.8-6-6.6c0-5.5 1.5-7 6-7zm0 11.4c2.5 0 3.7-0.3 3.7-4.5 0-4.5-0.9-4.8-3.7-4.8-2.6 0-3.7 0.4-3.7 4.8 0 4.2 1.2 4.5 3.7 4.5z"/>
		<path class="st0" d="m82.1 24.2h1.8l0.5 1.4c0.7-0.5 3.1-1.6 4.7-1.6 3.6 0 4.4 3.4 4.4 6.7 0 3.5-0.6 6.9-4.4 6.9-1.1 0-3.2-0.3-4.8-1v7.5h-2.3v-19.9zm6.8 11.4c1.5 0 2.3-0.9 2.3-4.8 0-3.2-0.8-4.6-2.3-4.6-1.8 0-3.3 0.5-4.5 1.1v7.7c1.5 0.4 2.7 0.6 4.5 0.6z"/>
		<path class="st1" d="m96.9 19.2h7.2c5.6 0 6.6 5.3 6.6 9.2 0 4.5-1.8 9.1-6.6 9.1h-7.2v-18.3zm7.1 16c3.1 0 4.3-3.1 4.3-6.9 0-5.2-1.6-7-4.3-7h-4.8v13.9h4.8z"/>
		<path class="st1" d="m118.5 24.1c3.4 0 5.3 0.3 5.3 4.7 0 2-1.1 3.1-3.6 3.1h-5.2c0 2.9 0.7 3.5 2.6 3.5 2.3 0 4.1 0 6-0.3v1.7c-2 0.6-4.4 0.7-6.5 0.7-3.4 0-4.4-1.7-4.4-6.8-0.1-5.8 1.6-6.6 5.8-6.6zm1.5 5.9c1 0 1.5-0.4 1.5-1.2 0-2.4-0.4-2.6-2.9-2.6-2.6 0-3.6 0-3.6 3.8h5z"/>
		<path class="st1" d="m127.8 24.2 3.9 10.2 3.9-10.2h2.5l-5.3 13.3h-2.4l-5.1-13.3h2.5z"/>
		<path class="st1" d="m145.4 24.1c3.4 0 5.3 0.3 5.3 4.7 0 2-1.1 3.1-3.6 3.1h-5.3c0 2.9 0.7 3.5 2.6 3.5 2.3 0 4.1 0 6-0.3v1.7c-2 0.6-4.4 0.7-6.5 0.7-3.4 0-4.4-1.7-4.4-6.8 0-5.8 1.7-6.6 5.9-6.6zm1.5 5.9c1 0 1.5-0.4 1.5-1.2 0-2.4-0.4-2.6-2.9-2.6-2.6 0-3.6 0-3.6 3.8h5z"/>
		<path class="st1" d="M153.3,17.9h2.3v14.7c0,2.1,0.6,2.6,1.4,2.8c0,0,1.9,0.5,2.1,0.5v1.6h-2.4c-2,0-3.4-1.2-3.4-4.7V17.9z"/>
		<path class="st1" d="m166 24.1c4.6 0 6 1.7 6 7 0 4.9-1.4 6.6-6 6.6s-6-1.8-6-6.6c0-5.5 1.6-7 6-7zm0 11.4c2.5 0 3.7-0.3 3.7-4.5 0-4.5-0.9-4.8-3.7-4.8-2.6 0-3.7 0.4-3.7 4.8 0.1 4.2 1.3 4.5 3.7 4.5z"/>
		<path class="st1" d="m174.9 24.2h1.8l0.5 1.4c0.7-0.5 3.1-1.6 4.7-1.6 3.6 0 4.4 3.4 4.4 6.7 0 3.5-0.6 6.9-4.4 6.9-1.1 0-3.2-0.3-4.8-1v7.5h-2.3v-19.9zm6.7 11.4c1.5 0 2.3-0.9 2.3-4.8 0-3.2-0.8-4.6-2.3-4.6-1.8 0-3.3 0.5-4.5 1.1v7.7c1.6 0.4 2.8 0.6 4.5 0.6z"/>
		<path class="st1" d="m194.6 24.1c3.4 0 5.3 0.3 5.3 4.7 0 2-1.1 3.1-3.6 3.1h-5.3c0 2.9 0.7 3.5 2.6 3.5 2.3 0 4.1 0 6-0.3v1.7c-2 0.6-4.4 0.7-6.5 0.7-3.4 0-4.4-1.7-4.4-6.8 0-5.8 1.7-6.6 5.9-6.6zm1.5 5.9c1 0 1.5-0.4 1.5-1.2 0-2.4-0.4-2.6-2.9-2.6-2.6 0-3.6 0-3.6 3.8h5z"/>
		<path class="st1" d="m202.5 24.2h1.8l0.6 1.7c1.4-0.9 2.7-1.8 4.7-1.8 0.7 0 1.5 0 1.8 0.2v2.3c-0.3-0.1-1.2-0.1-1.9-0.1-1.9 0-2.9 0.4-4.6 1.5v9.7h-2.3v-13.5z"/>
		<path class="st1" d="m213 27.5c0-2.1 0.9-3.4 3.5-3.4 1.7 0 5.5 0.2 6.8 0.5v1.6h-6.5c-1.4 0-1.5 0.5-1.5 1.3v1c0 1.2 0.6 1.3 1.5 1.3h3.8c2.3 0 3.4 1.4 3.4 3.3v1.3c0 2.7-1.7 3.3-3.3 3.3s-6.2-0.3-7.1-0.5v-1.6h6.8c0.1 0 1.3 0.1 1.3-1.2v-1.1c0-0.8-0.3-1.2-1.3-1.2h-3.8c-2.4 0-3.6-0.8-3.6-3.4v-1.2z"/>
			<path class="st2" d="m36 9.6h-32.7c-1.8 0-3.3 1.2-3.3 2.7v33.4c0 1.5 1.5 2.7 3.3 2.7h32.7c1.8 0 3.3-1.2 3.3-2.7v-33.4c0.1-1.5-1.4-2.7-3.3-2.7z"/>
			<path class="st3" d="m28.4 20.6s-2.2-2.8-6.7-3.2h-15.5v5h4l-0.1 16.5h5.7v-16.6h5.9s2.4 0.3 3.3 2.1c0 0 1.9 3.4 0 7.4 0 0-0.9 1.7-2.8 1.9l-4.7 0.1v5h4.1s2 0 3.9-0.8c1.1-0.5 2.4-1.3 3.1-2.4-0.1 0 6.1-7-0.2-15z"/>
</svg>
